<?xml version="1.0" encoding="utf-8"?>
<!-- Generator: Adobe Illustrator 16.0.0, SVG Export Plug-In . SVG Version: 6.00 Build 0)  -->
<!DOCTYPE svg PUBLIC "-//W3C//DTD SVG 1.1//EN" "http://www.w3.org/Graphics/SVG/1.1/DTD/svg11.dtd">
<svg version="1.1" id="Layer_1" xmlns="http://www.w3.org/2000/svg" xmlns:xlink="http://www.w3.org/1999/xlink" x="0px" y="0px"
	 width="130.411px" height="105.166px" viewBox="0 0 130.411 105.166" enable-background="new 0 0 130.411 105.166"
	 xml:space="preserve">
<path d="M18.532,85.748c-0.373,0.885-0.942,1.656-1.71,2.316c-0.765,0.658-1.642,1.143-2.627,1.449
	c-0.985,0.309-2.07,0.463-3.252,0.463H6.901v6.268v2.375H0v-3.363h2.957V79.049H0v-3.365h10.614c1.25,0,2.392,0.152,3.433,0.447
	c1.041,0.299,1.955,0.777,2.744,1.436c0.788,0.66,1.368,1.426,1.741,2.301c0.372,0.875,0.56,1.869,0.56,2.979
	C19.091,83.895,18.904,84.863,18.532,85.748z M14.851,81.102c-0.196-0.484-0.446-0.859-0.755-1.127
	c-0.327-0.287-0.8-0.514-1.414-0.678c-0.613-0.166-1.412-0.248-2.397-0.248H6.901v7.564h3.384c0.898,0,1.648-0.082,2.25-0.248
	c0.603-0.164,1.101-0.391,1.494-0.68c0.35-0.266,0.626-0.611,0.822-1.033c0.2-0.422,0.296-0.963,0.296-1.621
	C15.147,82.229,15.051,81.588,14.851,81.102z M24.506,98.619l-0.066-1.387V85.41h-2.727v-3.365h6.539v13.211h2.661v3.363H24.506z
	 M27.561,79.172c-0.504,0.436-1.063,0.65-1.676,0.65c-0.613,0-1.17-0.215-1.676-0.65c-0.459-0.473-0.688-0.998-0.688-1.572
	c0-0.641,0.229-1.174,0.688-1.605c0.505-0.432,1.063-0.65,1.676-0.65c0.613,0,1.171,0.219,1.676,0.65
	c0.461,0.473,0.692,0.998,0.692,1.572C28.252,78.207,28.021,78.74,27.561,79.172z M48.735,96.553
	c-1.645,1.668-3.746,2.502-6.309,2.502c-1.27,0-2.509-0.268-3.713-0.805c-0.218-0.104-0.432-0.215-0.639-0.338
	c-0.209-0.125-0.4-0.26-0.578-0.404v4.293h2.828v3.365h-6.639v-2.377V85.41h-2.629v-3.365h6.44v1.264
	c0.22-0.164,0.44-0.32,0.66-0.463c0.217-0.143,0.447-0.268,0.689-0.369c1.182-0.559,2.409-0.834,3.681-0.834
	c2.475,0,4.533,0.834,6.176,2.498c0.833,0.826,1.447,1.746,1.84,2.766c0.395,1.018,0.592,2.135,0.592,3.35
	C51.134,92.766,50.333,94.865,48.735,96.553z M46.006,86.457c-0.917-0.965-2.133-1.451-3.646-1.451c-1.401,0-2.573,0.473-3.515,1.42
	c-0.943,0.949-1.413,2.234-1.413,3.859c0,0.846,0.125,1.588,0.376,2.225c0.253,0.637,0.607,1.193,1.068,1.666
	c0.964,0.967,2.159,1.449,3.582,1.449c1.489,0,2.684-0.473,3.582-1.418c0.461-0.492,0.812-1.055,1.05-1.684
	c0.242-0.627,0.363-1.352,0.363-2.176C47.454,88.723,46.97,87.426,46.006,86.457z M57.951,91.676c0.22,0.965,0.703,1.83,1.446,2.592
	c1.05,1.01,2.377,1.514,3.976,1.514c0.284,0,0.634-0.045,1.053-0.139c0.413-0.094,0.837-0.211,1.263-0.357
	c0.428-0.143,0.844-0.287,1.249-0.432c0.405-0.143,0.74-0.266,1.001-0.369l0.986,3.117c-0.875,0.311-1.622,0.551-2.232,0.725
	c-0.616,0.176-1.25,0.34-1.907,0.496c-0.656,0.154-1.216,0.232-1.676,0.232c-2.604,0-4.777-0.834-6.506-2.502
	c-1.707-1.668-2.563-3.734-2.563-6.205c0-2.51,0.844-4.588,2.531-6.238c1.709-1.643,3.856-2.467,6.438-2.467
	c2.565,0,4.646,0.814,6.245,2.439c0.81,0.842,1.428,1.855,1.856,3.041c0.426,1.184,0.694,2.699,0.805,4.553H57.951z M66.297,86.18
	c-0.855-0.803-1.994-1.203-3.417-1.203c-1.467,0-2.672,0.492-3.615,1.48c-0.505,0.535-0.875,1.154-1.116,1.854h9.53
	C67.392,87.488,66.931,86.775,66.297,86.18z M75.608,98.619v-2.375V79.049h-2.826v-3.365h6.637v19.572h2.792v3.363H75.608z
	 M85.197,98.619l-0.065-1.387V85.41h-2.726v-3.365h6.538v13.211h2.662v3.363H85.197z M88.255,79.172
	c-0.503,0.436-1.063,0.65-1.676,0.65c-0.613,0-1.171-0.215-1.676-0.65c-0.461-0.473-0.692-0.998-0.692-1.572
	c0-0.641,0.231-1.174,0.692-1.605c0.504-0.432,1.063-0.65,1.676-0.65c0.613,0,1.172,0.219,1.676,0.65
	c0.458,0.473,0.689,0.998,0.689,1.572C88.944,78.207,88.713,78.74,88.255,79.172z M104.631,98.619v-2.375v-9.602
	c0-0.557-0.127-0.957-0.378-1.203c-0.251-0.244-0.663-0.371-1.232-0.371c-0.371,0-0.759,0.053-1.164,0.154
	c-0.405,0.104-0.85,0.27-1.332,0.494c-0.417,0.186-0.805,0.393-1.166,0.619c-0.364,0.225-0.697,0.463-1.005,0.709v8.211h2.532v3.363
	h-6.343v-2.375V85.41H91.72v-3.365h6.634v0.986c0.747-0.412,1.523-0.746,2.333-1.002c0.812-0.26,1.666-0.387,2.565-0.387
	c0.743,0,1.429,0.102,2.054,0.309c0.624,0.205,1.188,0.547,1.692,1.018c0.963,0.887,1.444,2.049,1.444,3.488v8.799h2.464v3.363
	H104.631z M116.446,91.676c0.219,0.965,0.701,1.83,1.446,2.592c1.05,1.01,2.377,1.514,3.975,1.514c0.285,0,0.635-0.045,1.053-0.139
	c0.415-0.094,0.839-0.211,1.265-0.357c0.427-0.143,0.842-0.287,1.248-0.432c0.405-0.143,0.74-0.266,1.003-0.369l0.986,3.117
	c-0.878,0.311-1.623,0.551-2.234,0.725c-0.614,0.176-1.249,0.34-1.908,0.496c-0.658,0.154-1.214,0.232-1.676,0.232
	c-2.607,0-4.775-0.834-6.507-2.502c-1.706-1.668-2.56-3.734-2.56-6.205c0-2.51,0.843-4.588,2.53-6.238
	c1.707-1.643,3.854-2.467,6.44-2.467c2.563,0,4.645,0.814,6.243,2.439c0.81,0.842,1.43,1.855,1.855,3.041
	c0.427,1.184,0.694,2.699,0.806,4.553H116.446z M124.793,86.18c-0.854-0.803-1.994-1.203-3.417-1.203
	c-1.469,0-2.673,0.492-3.616,1.48c-0.503,0.535-0.877,1.154-1.118,1.854h9.53C125.886,87.488,125.428,86.775,124.793,86.18z
	 M33.181,22.52c-0.331,0.334-0.64,0.684-0.926,1.045c-0.006,0.01-0.013,0.02-0.019,0.027c-0.021,0.027-0.04,0.055-0.059,0.08
	c-0.009,0.012-0.017,0.021-0.025,0.035c-0.282,0.363-0.541,0.74-0.78,1.127c-0.013,0.021-0.029,0.037-0.04,0.059
	c-0.029,0.049-0.053,0.098-0.079,0.145c-0.153,0.258-0.3,0.518-0.431,0.781l-0.003,0.006c-0.037,0.072-0.069,0.148-0.105,0.225
	c-0.008,0.016-0.014,0.029-0.021,0.045c-0.115,0.246-0.229,0.49-0.329,0.738c-0.001,0.004-0.004,0.01-0.006,0.014
	c-0.134,0.342-0.255,0.684-0.361,1.031l-0.001,0.012c-0.009,0.029-0.016,0.057-0.022,0.086c-0.007,0.031-0.017,0.064-0.026,0.096
	c-0.092,0.33-0.175,0.66-0.242,0.994c0,0.002,0,0.004,0,0.008c-0.007,0.027-0.011,0.057-0.016,0.084
	c-0.004,0.025-0.007,0.053-0.013,0.076c-0.064,0.35-0.116,0.699-0.151,1.051v0.016c-0.003,0.018-0.005,0.033-0.005,0.051
	c-0.002,0.018-0.004,0.037-0.005,0.057c-0.036,0.375-0.052,0.752-0.053,1.129c0,0.018,0,0.039-0.002,0.057
	c0.004,1.635,0.312,3.254,0.926,4.779c0.001,0.002,0.001,0.002,0.001,0.002c0.01,0.023,0.021,0.049,0.031,0.072
	c0.009,0.018,0.016,0.037,0.023,0.053c0.131,0.314,0.273,0.625,0.428,0.928c0.045,0.086,0.093,0.172,0.141,0.258
	c0.002,0.006,0.005,0.012,0.009,0.018c0.137,0.256,0.285,0.504,0.44,0.748c0,0,0,0,0.001,0.002c0.062,0.1,0.126,0.201,0.193,0.299
	c0.002,0.006,0.005,0.012,0.012,0.02c0.117,0.172,0.246,0.338,0.372,0.506c0.047,0.063,0.09,0.125,0.138,0.188
	c0.071,0.09,0.137,0.182,0.208,0.271c0.004,0.004,0.009,0.008,0.012,0.014c0.141,0.168,0.294,0.324,0.439,0.486
	c0.125,0.135,0.236,0.275,0.367,0.406c0.001,0.002,0.001,0.002,0.003,0.004l0.013,0.012l0.001,0.002l15.78,15.779
	c0.294,0.295,0.601,0.576,0.914,0.836c8.699,7.813,21.776,7.811,30.477-0.002c0.314-0.262,0.621-0.541,0.911-0.832L97.09,40.66
	l0.002-0.002c0.626-0.625,1.174-1.301,1.644-2.012c0.187-0.285,0.339-0.582,0.501-0.873c0.042-0.08,0.09-0.152,0.131-0.23
	c0.161-0.309,0.303-0.625,0.438-0.941c0.038-0.092,0.077-0.18,0.114-0.273c0.132-0.334,0.249-0.668,0.353-1.012
	c0.017-0.055,0.033-0.109,0.048-0.162c0.787-2.73,0.676-5.67-0.375-8.332c-0.011-0.027-0.018-0.055-0.028-0.082
	c-0.112-0.281-0.249-0.557-0.383-0.83c-0.051-0.105-0.091-0.213-0.146-0.314c-0.111-0.213-0.245-0.42-0.368-0.627
	c-0.095-0.158-0.177-0.316-0.278-0.471c-0.114-0.172-0.245-0.334-0.366-0.502c-0.133-0.18-0.255-0.365-0.397-0.539
	c-0.125-0.154-0.269-0.299-0.401-0.447c-0.157-0.172-0.302-0.354-0.467-0.518c-0.001-0.002-0.01-0.012-0.02-0.02l-0.019-0.02
	L81.309,6.691c-0.292-0.293-0.6-0.57-0.914-0.832c-8.697-7.814-21.775-7.811-30.476,0c-0.327,0.271-0.627,0.545-0.914,0.832
	L33.224,22.473l-0.002,0.002C33.207,22.488,33.195,22.504,33.181,22.52z M41.208,35.244c-0.584-0.18-1.131-0.496-1.591-0.957
	c-1.273-1.273-1.46-3.219-0.563-4.691c0.156-0.26,0.341-0.504,0.564-0.729c1.495-1.494,3.915-1.494,5.412-0.006l0.01,0.016
	c1.131,1.133,1.4,2.801,0.811,4.193l6.483,6.482l-2.034,2.033l-6.484-6.484C42.987,35.451,42.064,35.502,41.208,35.244z
	 M60.793,35.928c0.824,0.824,4.866,3.857,8.711,0.012c0.739-0.738,1.525-1.525,2.316-2.316c0.008-0.008,0.017-0.016,0.025-0.023
	l5.395,5.395l0.635,0.635l-0.025,0.023l-7.293,7.295c-1.439,1.438-3.362,2.23-5.415,2.23c-2.05,0-3.973-0.793-5.412-2.23
	c0,0,0,0-0.001-0.002l-7.363-7.363c2.158-2.705,3.066-6.084,2.726-9.357C57.602,32.736,60.421,35.555,60.793,35.928z M60.501,31.566
	l2.341-2.338c2.203-2.203,4.252-0.381,4.641,0.008l2.328,2.328l-2.341,2.342c-2.203,2.203-4.253,0.375-4.642-0.014L60.501,31.566z
	 M89.313,44.367L79.271,54.406c-0.243,0.242-0.494,0.471-0.756,0.686c-7.584,6.852-19.134,6.854-26.72,0
	c-0.26-0.215-0.513-0.441-0.757-0.686l-0.001-0.002L40.982,44.35c3.345,0.35,6.699-0.623,9.347-2.736l7.365,7.365
	c0.001,0.002,0.001,0.002,0.001,0.002c1.982,1.982,4.626,3.072,7.445,3.074c2.822,0,5.467-1.092,7.45-3.074l7.352-7.352l0.024-0.025
	c2.707,2.166,6.089,3.082,9.368,2.742L89.313,44.367z M51.039,8.725c0.244-0.244,0.496-0.469,0.758-0.684
	c7.584-6.854,19.134-6.854,26.718-0.002c0.262,0.213,0.512,0.441,0.756,0.686l0.001,0.002l15.781,15.781
	c3.898,3.898,3.9,10.219,0,14.117c-3.898,3.898-10.218,3.896-14.116-0.002l-1.665-1.664c0,0-9.068-9.068-9.756-9.756
	c-0.824-0.824-4.866-3.855-8.711-0.01c-0.746,0.744-1.54,1.539-2.339,2.338l-5.394-5.393l-0.635-0.637l7.289-7.289
	c2.985-2.984,7.843-2.986,10.829-0.002l13.909,13.91c-0.473,1.119-0.394,2.414,0.246,3.469c0.159,0.258,0.343,0.502,0.566,0.725
	c1.494,1.494,3.913,1.498,5.411,0.006l0.01-0.012c1.492-1.498,1.491-3.918-0.003-5.412c-1.037-1.037-2.52-1.354-3.83-0.955
	c-0.126,0.039-0.249,0.088-0.372,0.139L72.59,14.178c-4.106-4.107-10.789-4.105-14.896,0.002l-7.348,7.348
	c-0.073-0.055-0.146-0.105-0.217-0.16c-0.248-0.189-0.496-0.383-0.754-0.551c-0.018-0.012-0.037-0.02-0.055-0.031
	c-2.508-1.631-5.465-2.295-8.34-2L51.039,8.725z"/>
</svg>
