<?xml version="1.0" encoding="utf-8"?>
<!-- Generator: Adobe Illustrator 16.0.0, SVG Export Plug-In . SVG Version: 6.00 Build 0)  -->
<!DOCTYPE svg PUBLIC "-//W3C//DTD SVG 1.1//EN" "http://www.w3.org/Graphics/SVG/1.1/DTD/svg11.dtd">
<svg version="1.1" id="Layer_1" xmlns="http://www.w3.org/2000/svg" xmlns:xlink="http://www.w3.org/1999/xlink" x="0px" y="0px"
	 width="69.433px" height="61.418px" viewBox="0 0 69.433 61.418" enable-background="new 0 0 69.433 61.418" xml:space="preserve">
<path d="M3.618,21.909c-0.322,0.324-0.621,0.664-0.901,1.016c-0.005,0.008-0.013,0.02-0.019,0.027
	c-0.021,0.025-0.039,0.055-0.057,0.078c-0.009,0.012-0.017,0.021-0.024,0.033c-0.275,0.354-0.527,0.721-0.759,1.098
	c-0.012,0.02-0.028,0.035-0.04,0.057c-0.027,0.045-0.051,0.094-0.077,0.141c-0.148,0.25-0.292,0.502-0.418,0.76
	c0,0-0.002,0.002-0.003,0.006c-0.035,0.07-0.066,0.145-0.102,0.217c-0.008,0.016-0.013,0.029-0.02,0.045
	c-0.113,0.24-0.223,0.477-0.321,0.717c-0.001,0.006-0.004,0.012-0.004,0.012c-0.131,0.336-0.25,0.668-0.352,1.006
	c0,0-0.002,0.008-0.001,0.012c-0.009,0.027-0.017,0.055-0.021,0.082c-0.007,0.031-0.017,0.064-0.024,0.096
	c-0.091,0.32-0.172,0.643-0.236,0.965v0.008c-0.007,0.029-0.012,0.057-0.017,0.084C0.22,28.39,0.216,28.415,0.21,28.438
	c-0.062,0.342-0.112,0.682-0.146,1.023c0,0-0.002,0.01-0.001,0.014c-0.003,0.018-0.005,0.033-0.005,0.051
	c-0.001,0.018-0.003,0.037-0.005,0.055c-0.035,0.365-0.05,0.732-0.052,1.098c0,0.018,0,0.037-0.001,0.057
	c0.003,1.59,0.303,3.166,0.901,4.648h0c0.011,0.025,0.021,0.049,0.032,0.07c0.008,0.018,0.015,0.037,0.021,0.053
	c0.129,0.307,0.266,0.607,0.417,0.902c0.045,0.084,0.091,0.168,0.137,0.252c0.003,0.006,0.006,0.01,0.009,0.018
	c0.133,0.248,0.278,0.488,0.429,0.727c0,0,0,0,0.001,0c0.059,0.098,0.123,0.197,0.188,0.291c0.003,0.008,0.005,0.014,0.011,0.02
	c0.113,0.168,0.239,0.33,0.362,0.494c0.046,0.059,0.087,0.121,0.134,0.184c0.068,0.084,0.133,0.176,0.203,0.262
	c0.004,0.004,0.008,0.008,0.01,0.016c0.137,0.16,0.287,0.313,0.427,0.473c0.123,0.129,0.229,0.266,0.358,0.395
	c0.001,0.002,0.001,0.002,0.002,0.002l0.013,0.014l0.002,0.002L19.01,54.907c0.286,0.285,0.585,0.559,0.89,0.811
	c8.462,7.6,21.185,7.6,29.648-0.002c0.306-0.254,0.604-0.525,0.887-0.809l15.357-15.35l0.001-0.002
	c0.61-0.609,1.143-1.266,1.599-1.959c0.182-0.275,0.33-0.564,0.488-0.85c0.041-0.076,0.086-0.148,0.128-0.223
	c0.156-0.299,0.294-0.607,0.424-0.916c0.038-0.09,0.075-0.176,0.11-0.268c0.13-0.324,0.243-0.65,0.344-0.982
	c0.016-0.055,0.032-0.107,0.047-0.158c0.766-2.658,0.658-5.516-0.365-8.105c-0.01-0.027-0.018-0.055-0.028-0.08
	c-0.108-0.273-0.242-0.541-0.372-0.809c-0.049-0.102-0.089-0.205-0.142-0.305c-0.108-0.209-0.238-0.408-0.358-0.609
	c-0.092-0.154-0.173-0.309-0.269-0.459c-0.112-0.168-0.24-0.324-0.356-0.488c-0.13-0.176-0.25-0.355-0.388-0.523
	c-0.122-0.152-0.261-0.291-0.391-0.434c-0.152-0.17-0.294-0.346-0.454-0.506c-0.001-0.002-0.009-0.01-0.019-0.02l-0.019-0.02
	L50.438,6.511c-0.284-0.285-0.584-0.557-0.89-0.811c-8.459-7.602-21.183-7.6-29.646,0c-0.319,0.266-0.61,0.529-0.889,0.809
	L3.658,21.864h0C3.643,21.88,3.632,21.894,3.618,21.909z M11.426,34.288c-0.568-0.176-1.1-0.484-1.546-0.932
	c-1.239-1.238-1.421-3.131-0.549-4.564c0.152-0.252,0.332-0.49,0.549-0.707c1.454-1.453,3.81-1.455,5.266-0.006l0.009,0.014
	c1.101,1.104,1.361,2.727,0.79,4.078l6.307,6.307l-1.98,1.98l-6.308-6.309C13.159,34.489,12.259,34.538,11.426,34.288z
	 M30.48,34.952c0.802,0.803,4.733,3.752,8.474,0.012c0.719-0.719,1.483-1.482,2.253-2.254c0.007-0.006,0.015-0.014,0.024-0.023
	l5.249,5.248l0.618,0.619l-0.024,0.023l-7.095,7.096c-1.399,1.398-3.271,2.168-5.267,2.17c-1.995,0-3.865-0.771-5.265-2.172
	c0,0,0,0-0.001,0l-7.164-7.164c2.099-2.631,2.983-5.916,2.651-9.104C27.375,31.849,30.117,34.589,30.48,34.952z M30.196,30.708
	l2.277-2.271c2.144-2.145,4.136-0.371,4.515,0.008l2.264,2.264l-2.277,2.277c-2.143,2.143-4.137,0.365-4.515-0.014L30.196,30.708z
	 M58.225,43.163l-9.769,9.766c-0.238,0.236-0.481,0.459-0.736,0.666c-7.379,6.666-18.614,6.668-25.994,0.002
	c-0.254-0.207-0.499-0.432-0.736-0.67h-0.001l-9.782-9.781c3.254,0.34,6.518-0.607,9.092-2.66l7.166,7.164c0,0.002,0,0.002,0,0.002
	c1.929,1.928,4.501,2.988,7.244,2.99c2.745,0,5.318-1.063,7.247-2.99l7.152-7.152l0.025-0.025c2.633,2.107,5.923,2.998,9.113,2.668
	L58.225,43.163z M20.991,8.487c0.237-0.236,0.482-0.457,0.736-0.664c7.379-6.666,18.614-6.668,25.994-0.002
	c0.254,0.209,0.498,0.43,0.735,0.666l0.002,0.002l15.353,15.354c3.792,3.791,3.793,9.939,0,13.734
	c-3.792,3.791-9.94,3.789-13.732-0.002l-1.619-1.619c0,0-8.822-8.822-9.492-9.492c-0.802-0.803-4.734-3.75-8.475-0.008
	c-0.725,0.725-1.498,1.496-2.275,2.273l-5.248-5.248l-0.618-0.617l7.091-7.092c2.904-2.904,7.63-2.904,10.534,0l13.53,13.531
	c-0.459,1.088-0.383,2.348,0.24,3.375c0.154,0.25,0.333,0.488,0.55,0.705c1.453,1.453,3.807,1.455,5.265,0.004l0.01-0.01
	c1.451-1.457,1.45-3.813-0.003-5.266c-1.008-1.008-2.452-1.314-3.726-0.928c-0.125,0.035-0.243,0.084-0.362,0.135L41.956,13.794
	c-3.995-3.994-10.495-3.996-14.491,0l-7.148,7.148c-0.071-0.053-0.143-0.1-0.211-0.154c-0.243-0.186-0.483-0.373-0.734-0.537
	c-0.018-0.012-0.037-0.02-0.054-0.031c-2.44-1.586-5.316-2.232-8.113-1.945L20.991,8.487z"/>
</svg>
