<?xml version="1.0" encoding="utf-8"?>
<!-- Generator: Adobe Illustrator 16.0.0, SVG Export Plug-In . SVG Version: 6.00 Build 0)  -->
<!DOCTYPE svg PUBLIC "-//W3C//DTD SVG 1.1//EN" "http://www.w3.org/Graphics/SVG/1.1/DTD/svg11.dtd">
<svg version="1.1" id="Layer_1" xmlns="http://www.w3.org/2000/svg" xmlns:xlink="http://www.w3.org/1999/xlink" x="0px" y="0px"
	 width="218.839px" height="63.132px" viewBox="0 0 218.839 63.132" enable-background="new 0 0 218.839 63.132"
	 xml:space="preserve">
<path d="M106.961,36.924c-0.373,0.887-0.942,1.656-1.71,2.316c-0.766,0.658-1.643,1.143-2.628,1.449
	c-0.984,0.309-2.069,0.463-3.252,0.463h-4.041v6.268v2.375h-6.901v-3.363h2.957V30.227h-2.957v-3.365h10.614
	c1.249,0,2.392,0.15,3.433,0.447s1.955,0.775,2.743,1.436c0.79,0.66,1.369,1.424,1.742,2.299c0.372,0.875,0.56,1.869,0.56,2.979
	C107.521,35.07,107.333,36.039,106.961,36.924z M103.281,32.277c-0.196-0.482-0.446-0.859-0.755-1.127
	c-0.328-0.287-0.8-0.514-1.414-0.678c-0.613-0.166-1.412-0.246-2.398-0.246h-3.383v7.563h3.383c0.898,0,1.648-0.082,2.25-0.248
	c0.604-0.164,1.102-0.391,1.495-0.68c0.35-0.266,0.626-0.611,0.822-1.033c0.199-0.422,0.296-0.963,0.296-1.621
	C103.577,33.404,103.48,32.764,103.281,32.277z M112.936,49.795l-0.066-1.387v-11.82h-2.727v-3.367h6.539v13.211h2.66v3.363H112.936
	z M115.991,30.348c-0.505,0.436-1.063,0.65-1.676,0.65c-0.614,0-1.171-0.215-1.677-0.65c-0.46-0.473-0.688-0.996-0.688-1.572
	c0-0.639,0.228-1.174,0.688-1.605c0.506-0.432,1.063-0.648,1.677-0.648c0.612,0,1.171,0.217,1.676,0.648
	c0.46,0.473,0.691,0.998,0.691,1.574C116.682,29.383,116.451,29.916,115.991,30.348z M137.165,47.729
	c-1.646,1.668-3.746,2.502-6.309,2.502c-1.27,0-2.51-0.268-3.713-0.805c-0.219-0.104-0.433-0.215-0.64-0.338
	c-0.209-0.125-0.4-0.26-0.578-0.404v4.293h2.828v3.365h-6.64v-2.377V36.588h-2.628v-3.367h6.439v1.266
	c0.221-0.166,0.44-0.32,0.66-0.465c0.218-0.143,0.447-0.268,0.688-0.369c1.182-0.559,2.41-0.834,3.682-0.834
	c2.474,0,4.533,0.834,6.176,2.498c0.832,0.826,1.446,1.746,1.839,2.766c0.396,1.018,0.593,2.135,0.593,3.35
	C139.563,43.941,138.762,46.041,137.165,47.729z M134.435,37.633c-0.917-0.965-2.134-1.451-3.646-1.451
	c-1.401,0-2.574,0.475-3.516,1.422s-1.412,2.232-1.412,3.859c0,0.844,0.124,1.586,0.376,2.223c0.253,0.637,0.608,1.193,1.069,1.666
	c0.964,0.967,2.158,1.451,3.581,1.451c1.489,0,2.684-0.473,3.581-1.42c0.461-0.492,0.813-1.055,1.05-1.684
	c0.243-0.627,0.364-1.352,0.364-2.176C135.883,39.898,135.399,38.602,134.435,37.633z M146.38,42.852
	c0.22,0.967,0.702,1.83,1.446,2.592c1.049,1.01,2.377,1.514,3.977,1.514c0.283,0,0.633-0.045,1.051-0.139
	c0.414-0.094,0.838-0.211,1.264-0.355c0.429-0.145,0.845-0.287,1.249-0.434c0.405-0.143,0.74-0.266,1.001-0.369l0.986,3.119
	c-0.875,0.309-1.622,0.549-2.233,0.723c-0.614,0.176-1.249,0.34-1.906,0.496c-0.657,0.154-1.216,0.232-1.676,0.232
	c-2.604,0-4.777-0.834-6.507-2.502c-1.707-1.666-2.563-3.734-2.563-6.205c0-2.51,0.844-4.588,2.53-6.236
	c1.709-1.645,3.856-2.469,6.439-2.469c2.564,0,4.646,0.814,6.244,2.439c0.81,0.844,1.428,1.855,1.856,3.041
	c0.426,1.184,0.694,2.699,0.806,4.553H146.38z M154.726,37.355c-0.854-0.801-1.994-1.203-3.418-1.203
	c-1.466,0-2.672,0.492-3.614,1.48c-0.506,0.535-0.875,1.154-1.116,1.854h9.529C155.821,38.664,155.36,37.951,154.726,37.355z
	 M164.038,49.795V47.42V30.227h-2.825v-3.365h6.637v19.57h2.792v3.363H164.038z M173.627,49.795l-0.066-1.387v-11.82h-2.726v-3.367
	h6.537v13.211h2.662v3.363H173.627z M176.684,30.348c-0.503,0.436-1.063,0.65-1.676,0.65c-0.613,0-1.171-0.215-1.676-0.65
	c-0.46-0.473-0.691-0.996-0.691-1.572c0-0.639,0.231-1.174,0.691-1.605c0.505-0.432,1.063-0.648,1.676-0.648
	c0.612,0,1.173,0.217,1.676,0.648c0.459,0.473,0.688,0.998,0.688,1.574C177.373,29.383,177.143,29.916,176.684,30.348z
	 M193.061,49.795V47.42v-9.602c0-0.555-0.128-0.957-0.379-1.203c-0.251-0.244-0.662-0.371-1.232-0.371
	c-0.371,0-0.76,0.053-1.165,0.154c-0.404,0.104-0.851,0.27-1.331,0.494c-0.417,0.186-0.806,0.393-1.166,0.619
	c-0.363,0.225-0.696,0.463-1.004,0.709v8.211h2.531v3.363h-6.342V47.42V36.588h-2.824v-3.367h6.635v0.986
	c0.746-0.412,1.522-0.746,2.332-1.002c0.813-0.26,1.666-0.387,2.564-0.387c0.744,0,1.429,0.102,2.055,0.309
	c0.624,0.205,1.188,0.547,1.691,1.018c0.964,0.889,1.445,2.049,1.445,3.488v8.799h2.464v3.363H193.061z M204.875,42.852
	c0.219,0.967,0.701,1.83,1.445,2.592c1.05,1.01,2.377,1.514,3.976,1.514c0.284,0,0.635-0.045,1.052-0.139
	c0.415-0.094,0.84-0.211,1.266-0.355c0.427-0.145,0.842-0.287,1.247-0.434c0.405-0.143,0.741-0.266,1.004-0.369l0.986,3.119
	c-0.879,0.309-1.624,0.549-2.235,0.723c-0.613,0.176-1.248,0.34-1.906,0.496c-0.658,0.154-1.216,0.232-1.677,0.232
	c-2.606,0-4.775-0.834-6.507-2.502c-1.706-1.666-2.561-3.734-2.561-6.205c0-2.51,0.843-4.588,2.53-6.236
	c1.707-1.645,3.854-2.469,6.44-2.469c2.562,0,4.644,0.814,6.242,2.439c0.811,0.844,1.431,1.855,1.855,3.041
	c0.428,1.184,0.695,2.699,0.806,4.553H204.875z M213.222,37.355c-0.854-0.801-1.994-1.203-3.417-1.203
	c-1.469,0-2.673,0.492-3.616,1.48c-0.503,0.535-0.877,1.154-1.117,1.854h9.53C214.316,38.664,213.857,37.951,213.222,37.355z
	 M3.718,22.52c-0.33,0.334-0.639,0.684-0.925,1.045c-0.006,0.008-0.013,0.02-0.02,0.027c-0.02,0.027-0.04,0.055-0.06,0.08
	c-0.008,0.012-0.017,0.021-0.025,0.035c-0.282,0.363-0.541,0.74-0.779,1.127c-0.012,0.021-0.028,0.037-0.041,0.059
	c-0.028,0.049-0.053,0.098-0.079,0.145c-0.152,0.258-0.299,0.516-0.43,0.781c-0.001,0.002-0.002,0.004-0.003,0.006
	c-0.037,0.072-0.068,0.148-0.104,0.223c-0.008,0.016-0.014,0.031-0.021,0.047c-0.116,0.246-0.229,0.49-0.33,0.736
	c-0.001,0.006-0.004,0.012-0.005,0.016c-0.134,0.342-0.255,0.684-0.361,1.031c0.001,0.004,0,0.008,0,0.01
	c-0.009,0.031-0.016,0.059-0.021,0.088c-0.008,0.031-0.017,0.063-0.025,0.096c-0.093,0.33-0.176,0.66-0.243,0.992
	c0.001,0.004,0,0.006,0,0.006c-0.007,0.031-0.012,0.059-0.017,0.088c-0.003,0.025-0.007,0.051-0.013,0.074
	c-0.063,0.352-0.114,0.701-0.15,1.053c0,0.006,0,0.008,0,0.014C0.062,30.314,0.06,30.332,0.06,30.35
	c-0.003,0.018-0.004,0.037-0.005,0.055c-0.036,0.377-0.052,0.754-0.053,1.129C0.001,31.551,0.001,31.572,0,31.592
	c0.003,1.635,0.312,3.254,0.927,4.777l0,0.002c0.01,0.025,0.021,0.051,0.031,0.072c0.009,0.018,0.016,0.037,0.023,0.055
	c0.132,0.313,0.274,0.623,0.428,0.928c0.045,0.086,0.093,0.172,0.141,0.258c0.002,0.006,0.006,0.012,0.008,0.018
	c0.138,0.256,0.286,0.504,0.44,0.748c0,0,0,0,0.001,0c0.062,0.102,0.128,0.201,0.194,0.301c0.002,0.006,0.005,0.012,0.012,0.018
	c0.116,0.172,0.245,0.34,0.372,0.508c0.047,0.063,0.09,0.125,0.138,0.188c0.071,0.09,0.137,0.182,0.209,0.27
	c0.005,0.006,0.009,0.01,0.012,0.016c0.14,0.166,0.293,0.324,0.438,0.486c0.125,0.135,0.236,0.275,0.367,0.406
	c0.001,0.002,0.001,0.002,0.003,0.002l0.014,0.014l0,0.002l15.781,15.779c0.294,0.295,0.601,0.576,0.915,0.836
	c8.698,7.813,21.776,7.811,30.476-0.002c0.314-0.262,0.62-0.541,0.911-0.832L67.627,40.66l0.001-0.002
	c0.627-0.627,1.174-1.301,1.644-2.014c0.187-0.283,0.338-0.58,0.501-0.873c0.042-0.078,0.09-0.152,0.131-0.229
	c0.162-0.309,0.303-0.625,0.438-0.941c0.038-0.092,0.076-0.18,0.113-0.273c0.133-0.334,0.249-0.67,0.353-1.012
	c0.017-0.055,0.032-0.109,0.047-0.162c0.788-2.73,0.677-5.67-0.375-8.332c-0.01-0.027-0.018-0.057-0.027-0.084
	c-0.112-0.281-0.249-0.555-0.383-0.828c-0.052-0.105-0.092-0.213-0.146-0.314c-0.111-0.215-0.245-0.42-0.368-0.629
	c-0.096-0.156-0.178-0.314-0.278-0.469c-0.114-0.174-0.245-0.334-0.367-0.502c-0.133-0.18-0.255-0.365-0.397-0.539
	c-0.125-0.156-0.269-0.299-0.402-0.447c-0.156-0.174-0.302-0.354-0.467-0.52c-0.001,0-0.01-0.01-0.02-0.02l-0.019-0.018
	L51.846,6.689c-0.292-0.291-0.6-0.57-0.914-0.832c-8.697-7.813-21.775-7.809-30.476,0.002c-0.327,0.271-0.627,0.543-0.914,0.83
	L3.761,22.473l-0.001,0.002C3.745,22.488,3.732,22.504,3.718,22.52z M11.746,35.244c-0.584-0.18-1.132-0.498-1.591-0.957
	c-1.273-1.273-1.46-3.221-0.563-4.693c0.157-0.26,0.342-0.502,0.565-0.727c1.495-1.494,3.915-1.494,5.412-0.006l0.011,0.014
	c1.131,1.135,1.399,2.803,0.811,4.193l6.483,6.484l-2.034,2.033l-6.484-6.484C13.525,35.451,12.601,35.502,11.746,35.244z
	 M31.33,35.928c0.825,0.824,4.866,3.855,8.711,0.012c0.739-0.738,1.524-1.525,2.316-2.316c0.007-0.008,0.017-0.016,0.025-0.025
	l5.395,5.395l0.635,0.635l-0.025,0.025l-7.293,7.295c-1.438,1.438-3.362,2.229-5.416,2.229c-2.049,0-3.973-0.791-5.412-2.23
	c0,0,0,0,0,0l-7.364-7.363c2.158-2.705,3.067-6.084,2.725-9.357C28.139,32.736,30.958,35.555,31.33,35.928z M31.039,31.566
	l2.341-2.34c2.202-2.201,4.252-0.379,4.641,0.01l2.328,2.328l-2.341,2.342c-2.202,2.201-4.254,0.375-4.643-0.014L31.039,31.566z
	 M59.849,44.367L49.808,54.406c-0.244,0.242-0.494,0.471-0.755,0.684c-7.584,6.854-19.135,6.855-26.72,0.002
	c-0.26-0.215-0.512-0.443-0.757-0.688h0L11.52,44.35c3.346,0.35,6.7-0.625,9.346-2.736l7.366,7.365l0,0.002
	c1.983,1.982,4.626,3.072,7.446,3.074c2.821,0,5.467-1.094,7.449-3.074l7.352-7.352l0.024-0.025
	c2.707,2.166,6.089,3.082,9.368,2.742L59.849,44.367z M21.577,8.725c0.244-0.246,0.497-0.471,0.758-0.684
	c7.584-6.854,19.134-6.855,26.718-0.004c0.262,0.215,0.513,0.443,0.756,0.688h0.001l15.781,15.781
	c3.898,3.898,3.899,10.219,0,14.119c-3.897,3.896-10.218,3.896-14.116-0.002l-1.664-1.664c0,0-9.068-9.068-9.757-9.756
	c-0.824-0.826-4.866-3.855-8.71-0.012c-0.746,0.746-1.541,1.541-2.34,2.34l-5.394-5.393l-0.635-0.637l7.29-7.289
	c2.985-2.986,7.842-2.986,10.828-0.002l13.908,13.908c-0.472,1.119-0.394,2.416,0.248,3.471c0.157,0.258,0.342,0.502,0.565,0.725
	c1.493,1.494,3.913,1.496,5.411,0.004l0.01-0.01c1.492-1.498,1.49-3.918-0.003-5.412c-1.037-1.037-2.52-1.354-3.83-0.955
	c-0.127,0.037-0.249,0.088-0.372,0.139L43.127,14.178C39.021,10.07,32.34,10.07,28.232,14.18l-7.349,7.348
	c-0.073-0.055-0.147-0.105-0.218-0.162c-0.248-0.188-0.496-0.381-0.754-0.551c-0.018-0.01-0.037-0.018-0.055-0.031
	c-2.508-1.631-5.465-2.295-8.34-1.998L21.577,8.725z"/>
</svg>
