<?xml version="1.0" encoding="utf-8"?>
<!-- Generator: Adobe Illustrator 16.0.0, SVG Export Plug-In . SVG Version: 6.00 Build 0)  -->
<!DOCTYPE svg PUBLIC "-//W3C//DTD SVG 1.1//EN" "http://www.w3.org/Graphics/SVG/1.1/DTD/svg11.dtd">
<svg version="1.1" id="Layer_1" xmlns="http://www.w3.org/2000/svg" xmlns:xlink="http://www.w3.org/1999/xlink" x="0px" y="0px"
	 width="130.411px" height="105.166px" viewBox="0 0 130.411 105.166" enable-background="new 0 0 130.411 105.166"
	 xml:space="preserve">
<rect x="-92.146" y="-101.98" fill="#FFCB05" width="321.98" height="324.123"/>
<g>
	<g>
		<path d="M18.532,85.748c-0.373,0.885-0.942,1.656-1.71,2.316c-0.765,0.658-1.642,1.143-2.627,1.449
			c-0.985,0.309-2.07,0.463-3.252,0.463H6.901v6.268v2.375H0v-3.363h2.957V79.049H0v-3.365h10.614c1.25,0,2.392,0.152,3.433,0.447
			c1.041,0.299,1.955,0.777,2.744,1.436c0.788,0.66,1.368,1.426,1.741,2.301c0.372,0.875,0.56,1.869,0.56,2.979
			C19.091,83.895,18.904,84.863,18.532,85.748z M14.851,81.102c-0.196-0.484-0.446-0.859-0.755-1.127
			c-0.327-0.287-0.8-0.514-1.414-0.678c-0.613-0.166-1.412-0.248-2.397-0.248H6.901v7.564h3.384c0.898,0,1.648-0.082,2.25-0.248
			c0.603-0.164,1.101-0.391,1.494-0.68c0.35-0.266,0.626-0.611,0.822-1.033c0.2-0.422,0.296-0.963,0.296-1.621
			C15.147,82.229,15.051,81.588,14.851,81.102z"/>
		<path d="M24.506,98.619l-0.066-1.387V85.41h-2.727v-3.365h6.539v13.211h2.661v3.363H24.506z M27.561,79.172
			c-0.504,0.436-1.063,0.65-1.676,0.65c-0.613,0-1.17-0.215-1.676-0.65c-0.459-0.473-0.688-0.998-0.688-1.572
			c0-0.641,0.229-1.174,0.688-1.605c0.505-0.432,1.063-0.65,1.676-0.65c0.613,0,1.171,0.219,1.676,0.65
			c0.461,0.473,0.692,0.998,0.692,1.572C28.252,78.207,28.021,78.74,27.561,79.172z"/>
		<path d="M48.735,96.553c-1.645,1.668-3.746,2.502-6.309,2.502c-1.27,0-2.509-0.268-3.713-0.805
			c-0.218-0.104-0.432-0.215-0.639-0.338c-0.209-0.125-0.4-0.26-0.578-0.404v4.293h2.828v3.365h-6.639v-2.377V85.41h-2.629v-3.365
			h6.44v1.264c0.22-0.164,0.44-0.32,0.66-0.463c0.217-0.143,0.447-0.268,0.689-0.369c1.182-0.559,2.409-0.834,3.681-0.834
			c2.475,0,4.533,0.834,6.176,2.498c0.833,0.826,1.447,1.746,1.84,2.766c0.395,1.018,0.592,2.135,0.592,3.35
			C51.134,92.766,50.333,94.865,48.735,96.553z M46.006,86.457c-0.917-0.965-2.133-1.451-3.646-1.451
			c-1.401,0-2.573,0.473-3.515,1.42c-0.943,0.949-1.413,2.234-1.413,3.859c0,0.846,0.125,1.588,0.376,2.225
			c0.253,0.637,0.607,1.193,1.068,1.666c0.964,0.967,2.159,1.449,3.582,1.449c1.489,0,2.684-0.473,3.582-1.418
			c0.461-0.492,0.812-1.055,1.05-1.684c0.242-0.627,0.363-1.352,0.363-2.176C47.454,88.723,46.97,87.426,46.006,86.457z"/>
		<path d="M57.951,91.676c0.22,0.965,0.703,1.83,1.446,2.592c1.05,1.01,2.377,1.514,3.977,1.514c0.283,0,0.633-0.045,1.052-0.139
			c0.413-0.094,0.837-0.211,1.263-0.357c0.428-0.143,0.844-0.287,1.249-0.432c0.405-0.143,0.74-0.266,1.001-0.369l0.986,3.117
			c-0.875,0.311-1.622,0.551-2.232,0.725c-0.616,0.176-1.25,0.34-1.907,0.496c-0.656,0.154-1.216,0.232-1.676,0.232
			c-2.604,0-4.777-0.834-6.506-2.502c-1.707-1.668-2.562-3.734-2.562-6.205c0-2.51,0.844-4.588,2.53-6.238
			c1.709-1.643,3.856-2.467,6.438-2.467c2.565,0,4.646,0.814,6.245,2.439c0.81,0.842,1.428,1.855,1.856,3.041
			c0.426,1.184,0.694,2.699,0.805,4.553H57.951z M66.297,86.18c-0.855-0.803-1.994-1.203-3.417-1.203
			c-1.467,0-2.672,0.492-3.615,1.48c-0.505,0.535-0.875,1.154-1.116,1.854h9.53C67.392,87.488,66.931,86.775,66.297,86.18z"/>
		<path d="M75.608,98.619v-2.375V79.049h-2.826v-3.365h6.637v19.572h2.792v3.363H75.608z"/>
		<path d="M85.197,98.619l-0.065-1.387V85.41h-2.726v-3.365h6.538v13.211h2.662v3.363H85.197z M88.255,79.172
			c-0.503,0.436-1.063,0.65-1.676,0.65c-0.613,0-1.172-0.215-1.676-0.65c-0.461-0.473-0.692-0.998-0.692-1.572
			c0-0.641,0.231-1.174,0.692-1.605c0.504-0.432,1.063-0.65,1.676-0.65c0.613,0,1.172,0.219,1.676,0.65
			c0.458,0.473,0.689,0.998,0.689,1.572C88.944,78.207,88.713,78.74,88.255,79.172z"/>
		<path d="M104.631,98.619v-2.375v-9.602c0-0.557-0.127-0.957-0.378-1.203c-0.251-0.244-0.663-0.371-1.232-0.371
			c-0.371,0-0.759,0.053-1.164,0.154c-0.406,0.104-0.85,0.27-1.332,0.494c-0.417,0.186-0.805,0.393-1.166,0.619
			c-0.364,0.225-0.697,0.463-1.005,0.709v8.211h2.532v3.363h-6.343v-2.375V85.41H91.72v-3.365h6.634v0.986
			c0.747-0.412,1.523-0.746,2.333-1.002c0.812-0.26,1.666-0.387,2.565-0.387c0.743,0,1.429,0.102,2.054,0.309
			c0.624,0.205,1.188,0.547,1.692,1.018c0.963,0.887,1.444,2.049,1.444,3.488v8.799h2.464v3.363H104.631z"/>
		<path d="M116.446,91.676c0.219,0.965,0.701,1.83,1.446,2.592c1.05,1.01,2.377,1.514,3.974,1.514c0.286,0,0.635-0.045,1.053-0.139
			c0.415-0.094,0.839-0.211,1.265-0.357c0.427-0.143,0.842-0.287,1.248-0.432c0.405-0.143,0.74-0.266,1.003-0.369l0.986,3.117
			c-0.878,0.311-1.623,0.551-2.234,0.725c-0.614,0.176-1.249,0.34-1.908,0.496c-0.658,0.154-1.214,0.232-1.676,0.232
			c-2.607,0-4.775-0.834-6.507-2.502c-1.706-1.668-2.56-3.734-2.56-6.205c0-2.51,0.843-4.588,2.53-6.238
			c1.707-1.643,3.854-2.467,6.44-2.467c2.563,0,4.645,0.814,6.243,2.439c0.81,0.842,1.43,1.855,1.855,3.041
			c0.427,1.184,0.694,2.699,0.806,4.553H116.446z M124.793,86.18c-0.854-0.803-1.994-1.203-3.417-1.203
			c-1.469,0-2.673,0.492-3.616,1.48c-0.503,0.535-0.877,1.154-1.118,1.854h9.53C125.886,87.488,125.428,86.775,124.793,86.18z"/>
	</g>
	<g>
		<path fill="none" d="M71.845,33.598c-0.008,0.01-0.017,0.018-0.024,0.025l5.393,5.393l0.637,0.637l0.025-0.023l-0.635-0.637
			L71.845,33.598z"/>
		<path fill="none" d="M62.842,29.229l-2.341,2.338l2.327,2.326c0.389,0.389,2.44,2.217,4.643,0.014l2.341-2.342l-2.328-2.328
			C67.095,28.848,65.045,27.025,62.842,29.229z"/>
		<path fill="none" d="M96.86,40.867c-0.209,0.199-0.418,0.395-0.636,0.574C96.435,41.268,96.647,41.07,96.86,40.867z"/>
		<path fill="none" d="M79.967,41.604l-0.025,0.025c2.707,2.168,6.09,3.08,9.371,2.738l0.022-0.021
			C86.056,44.686,82.673,43.77,79.967,41.604z"/>
		<path d="M33.182,22.52c-0.331,0.334-0.64,0.684-0.926,1.045c-0.005,0.01-0.013,0.02-0.019,0.027
			c-0.021,0.027-0.04,0.055-0.06,0.08c-0.009,0.012-0.017,0.021-0.024,0.035c-0.282,0.363-0.541,0.74-0.78,1.127
			c-0.013,0.021-0.029,0.037-0.04,0.059c-0.029,0.049-0.053,0.098-0.08,0.145c-0.152,0.258-0.3,0.518-0.431,0.781
			c0,0-0.003,0.002-0.003,0.006c-0.037,0.072-0.068,0.148-0.104,0.223c-0.008,0.016-0.014,0.031-0.021,0.047
			c-0.115,0.246-0.229,0.49-0.33,0.738c-0.001,0.004-0.004,0.01-0.005,0.014c-0.134,0.342-0.255,0.684-0.361,1.031
			c0,0.004,0,0.008,0,0.008c-0.009,0.033-0.017,0.061-0.022,0.09c-0.008,0.031-0.017,0.063-0.026,0.096
			c-0.092,0.33-0.175,0.66-0.242,0.992c0.001,0.004,0,0.006,0,0.01c-0.007,0.027-0.012,0.057-0.016,0.084
			c-0.004,0.025-0.007,0.053-0.013,0.076c-0.064,0.35-0.116,0.699-0.151,1.051c0,0,0,0.01,0,0.016
			c-0.003,0.018-0.004,0.033-0.004,0.051c-0.002,0.018-0.004,0.037-0.006,0.057c-0.035,0.375-0.051,0.752-0.053,1.129
			c0,0.018,0,0.039-0.002,0.057c0.003,1.635,0.312,3.254,0.926,4.779c0.002,0,0.002,0,0.002,0c0.01,0.025,0.021,0.051,0.031,0.072
			c0.009,0.018,0.016,0.037,0.023,0.055c0.131,0.314,0.273,0.625,0.428,0.928c0.045,0.086,0.093,0.172,0.141,0.258
			c0.002,0.006,0.005,0.012,0.008,0.018c0.138,0.256,0.285,0.504,0.441,0.748c0,0,0,0,0.001,0c0.062,0.102,0.127,0.203,0.193,0.301
			c0.002,0.006,0.005,0.012,0.012,0.018c0.117,0.174,0.246,0.34,0.373,0.508c0.047,0.063,0.09,0.125,0.138,0.188
			c0.07,0.09,0.137,0.182,0.208,0.271c0.005,0.004,0.009,0.008,0.012,0.014c0.14,0.166,0.294,0.324,0.439,0.486
			c0.125,0.135,0.236,0.275,0.367,0.406c0.001,0.002,0.001,0.002,0.003,0.002l0.014,0.014l0.001,0.002l15.78,15.779
			c0.294,0.295,0.601,0.574,0.914,0.836c8.698,7.813,21.776,7.811,30.476-0.002c0.315-0.262,0.621-0.541,0.912-0.832L97.09,40.66
			l0.001-0.002c0.626-0.625,1.174-1.301,1.644-2.012c0.187-0.285,0.339-0.582,0.501-0.873c0.043-0.08,0.09-0.154,0.131-0.23
			c0.161-0.309,0.303-0.625,0.438-0.941c0.038-0.092,0.077-0.18,0.114-0.273c0.133-0.334,0.25-0.668,0.353-1.012
			c0.017-0.055,0.032-0.109,0.047-0.162c0.787-2.73,0.676-5.67-0.375-8.332c-0.011-0.027-0.018-0.055-0.028-0.082
			c-0.113-0.281-0.249-0.557-0.383-0.83c-0.051-0.105-0.091-0.213-0.146-0.314c-0.111-0.215-0.245-0.42-0.368-0.627
			c-0.095-0.158-0.177-0.316-0.278-0.471c-0.114-0.174-0.245-0.334-0.366-0.502c-0.133-0.18-0.256-0.365-0.398-0.539
			c-0.125-0.156-0.268-0.299-0.401-0.447c-0.157-0.172-0.302-0.354-0.467-0.52c-0.001,0-0.011-0.01-0.02-0.018l-0.02-0.02
			L81.309,6.689c-0.292-0.291-0.6-0.568-0.914-0.83c-8.697-7.814-21.775-7.811-30.476,0c-0.327,0.271-0.627,0.545-0.914,0.83
			L33.224,22.473l-0.002,0.002C33.207,22.488,33.195,22.504,33.182,22.52z M41.209,35.244c-0.585-0.18-1.132-0.498-1.592-0.957
			c-1.273-1.273-1.46-3.219-0.563-4.691c0.156-0.26,0.341-0.504,0.564-0.729c1.495-1.494,3.914-1.494,5.412-0.006l0.009,0.014
			c1.132,1.135,1.4,2.803,0.812,4.195l6.482,6.482l-2.033,2.033l-6.484-6.484C42.988,35.451,42.064,35.502,41.209,35.244z
			 M60.793,35.928c0.824,0.824,4.867,3.857,8.711,0.012c0.739-0.738,1.525-1.525,2.316-2.316c0.007-0.008,0.017-0.016,0.024-0.025
			l5.395,5.395l0.635,0.637l-0.025,0.023l-7.293,7.295c-1.439,1.438-3.362,2.23-5.415,2.23c-2.051,0-3.974-0.793-5.413-2.23
			c0,0,0,0-0.001-0.002l-7.364-7.363c2.158-2.705,3.067-6.084,2.726-9.357C57.602,32.736,60.421,35.555,60.793,35.928z
			 M60.501,31.566l2.341-2.338c2.203-2.203,4.253-0.381,4.642,0.008l2.328,2.328l-2.341,2.342c-2.203,2.203-4.253,0.375-4.643-0.014
			L60.501,31.566z M89.313,44.367L79.271,54.406c-0.244,0.242-0.494,0.471-0.756,0.686c-7.584,6.852-19.134,6.854-26.72-0.002
			c-0.26-0.213-0.513-0.439-0.757-0.684l-0.001-0.002L40.982,44.35c3.345,0.35,6.7-0.623,9.347-2.736l7.365,7.365
			c0.001,0.002,0.001,0.002,0.001,0.002c1.982,1.982,4.626,3.072,7.445,3.074c2.821,0,5.467-1.092,7.449-3.074l7.352-7.352
			l0.025-0.025c2.707,2.166,6.089,3.082,9.368,2.742L89.313,44.367z M51.04,8.725c0.244-0.244,0.496-0.471,0.758-0.684
			c7.584-6.854,19.134-6.854,26.718-0.002c0.262,0.213,0.512,0.441,0.756,0.686l0.001,0.002l15.782,15.781
			c3.898,3.898,3.9,10.219,0,14.117c-3.898,3.898-10.218,3.896-14.116-0.002l-1.665-1.664c0,0-9.067-9.068-9.756-9.756
			c-0.824-0.824-4.866-3.855-8.711-0.012c-0.746,0.746-1.54,1.541-2.34,2.34l-5.394-5.395l-0.635-0.635l7.289-7.289
			c2.985-2.984,7.844-2.986,10.829-0.002l13.908,13.908c-0.473,1.121-0.394,2.416,0.246,3.471c0.159,0.258,0.344,0.502,0.566,0.725
			c1.493,1.494,3.912,1.496,5.411,0.006l0.01-0.012c1.492-1.498,1.49-3.918-0.003-5.412c-1.037-1.037-2.52-1.354-3.83-0.955
			c-0.127,0.037-0.249,0.088-0.372,0.139L72.59,14.178c-4.106-4.107-10.789-4.105-14.896,0.002l-7.348,7.348
			c-0.073-0.055-0.146-0.105-0.217-0.16c-0.249-0.189-0.496-0.381-0.755-0.553c-0.018-0.01-0.037-0.018-0.055-0.029
			c-2.507-1.631-5.465-2.295-8.339-2L51.04,8.725z"/>
		<g>
			<path fill="#FFFFFF" d="M49.318,20.785c0.019,0.012,0.038,0.02,0.055,0.029c0.259,0.172,0.506,0.363,0.755,0.553
				c0.071,0.055,0.145,0.105,0.217,0.16l7.348-7.348c4.108-4.107,10.79-4.109,14.896-0.002L86.493,28.08
				c0.123-0.051,0.245-0.102,0.372-0.139c1.31-0.398,2.793-0.082,3.83,0.955c1.493,1.494,1.495,3.914,0.003,5.412l-0.01,0.012
				c-1.499,1.49-3.917,1.488-5.411-0.006c-0.223-0.223-0.407-0.467-0.566-0.725c-0.64-1.055-0.719-2.35-0.246-3.471L70.556,16.211
				c-2.985-2.984-7.844-2.982-10.829,0.002l-7.289,7.289l0.635,0.635l5.394,5.395c0.8-0.799,1.594-1.594,2.34-2.34
				c3.845-3.844,7.887-0.813,8.711,0.012c0.688,0.688,9.756,9.756,9.756,9.756l1.665,1.664c3.898,3.898,10.218,3.9,14.116,0.002
				c3.899-3.898,3.897-10.219,0-14.117L79.273,8.727l-0.001-0.002c-0.244-0.244-0.494-0.473-0.756-0.686
				c-7.584-6.852-19.134-6.852-26.718,0.002c-0.262,0.213-0.514,0.439-0.758,0.684L40.979,18.785
				C43.854,18.49,46.811,19.154,49.318,20.785z"/>
			<path fill="#FFFFFF" d="M79.942,41.629L72.59,48.98c-1.982,1.982-4.628,3.074-7.449,3.074c-2.819-0.002-5.463-1.092-7.445-3.074
				c0,0,0,0-0.001-0.002l-7.365-7.365c-2.647,2.113-6.001,3.086-9.347,2.736l10.055,10.055l0.001,0.002
				c0.244,0.244,0.497,0.471,0.757,0.684c7.585,6.855,19.135,6.854,26.72,0.002c0.262-0.215,0.512-0.443,0.756-0.686l10.042-10.039
				C86.032,44.709,82.649,43.797,79.942,41.629z"/>
			<path fill="#FFFFFF" d="M59.728,46.945c0.001,0.002,0.001,0.002,0.001,0.002c1.439,1.438,3.362,2.23,5.413,2.23
				c2.053,0,3.976-0.793,5.415-2.23l7.293-7.295l-0.637-0.637l-5.393-5.393c-0.792,0.791-1.577,1.578-2.316,2.316
				c-3.845,3.846-7.887,0.813-8.711-0.012c-0.372-0.373-3.191-3.191-5.703-5.703c0.341,3.273-0.567,6.652-2.726,9.357L59.728,46.945
				z"/>
			<path fill="#FFFFFF" d="M52.334,39.553l-6.482-6.482c0.589-1.393,0.32-3.061-0.812-4.195l-0.009-0.014
				c-1.498-1.488-3.917-1.488-5.412,0.006c-0.223,0.225-0.409,0.469-0.564,0.729c-0.897,1.473-0.71,3.418,0.563,4.691
				c0.46,0.459,1.007,0.777,1.592,0.957c0.854,0.258,1.778,0.207,2.607-0.143l6.484,6.484L52.334,39.553z"/>
		</g>
	</g>
</g>
</svg>
