<?xml version="1.0" encoding="utf-8"?>
<!-- Generator: Adobe Illustrator 16.0.0, SVG Export Plug-In . SVG Version: 6.00 Build 0)  -->
<!DOCTYPE svg PUBLIC "-//W3C//DTD SVG 1.1//EN" "http://www.w3.org/Graphics/SVG/1.1/DTD/svg11.dtd">
<svg version="1.1" id="Layer_1" xmlns="http://www.w3.org/2000/svg" xmlns:xlink="http://www.w3.org/1999/xlink" x="0px" y="0px"
	 width="209.804px" height="57.331px" viewBox="0 0 209.804 57.331" enable-background="new 0 0 209.804 57.331"
	 xml:space="preserve">
<rect x="-53.06" y="-16.315" width="321.98" height="322.283"/>
<g>
	<g>
		<g>
			<path fill="#FFFFFF" d="M97.926,34.024c-0.373,0.887-0.942,1.656-1.71,2.316c-0.766,0.658-1.643,1.143-2.628,1.449
				c-0.984,0.309-2.069,0.463-3.252,0.463h-4.041v6.268v2.375h-6.901v-3.363h2.957V27.327h-2.957v-3.365h10.614
				c1.249,0,2.392,0.15,3.433,0.447s1.955,0.775,2.743,1.436c0.79,0.66,1.369,1.424,1.742,2.299c0.372,0.875,0.56,1.869,0.56,2.979
				C98.486,32.171,98.298,33.14,97.926,34.024z M94.246,29.378c-0.196-0.482-0.446-0.859-0.755-1.127
				c-0.328-0.287-0.8-0.514-1.414-0.678c-0.613-0.166-1.412-0.246-2.398-0.246h-3.383v7.563h3.383c0.898,0,1.648-0.082,2.25-0.248
				c0.604-0.164,1.102-0.391,1.495-0.68c0.35-0.266,0.626-0.611,0.822-1.033c0.199-0.422,0.296-0.963,0.296-1.621
				C94.542,30.505,94.445,29.864,94.246,29.378z"/>
			<path fill="#FFFFFF" d="M103.901,46.896l-0.067-1.387v-11.82h-2.726v-3.367h6.539v13.211h2.66v3.363H103.901z M106.956,27.448
				c-0.505,0.436-1.063,0.65-1.676,0.65c-0.614,0-1.171-0.215-1.677-0.65c-0.46-0.473-0.688-0.996-0.688-1.572
				c0-0.639,0.228-1.174,0.688-1.605c0.506-0.432,1.063-0.648,1.677-0.648c0.612,0,1.171,0.217,1.676,0.648
				c0.46,0.473,0.691,0.998,0.691,1.574C107.647,26.483,107.416,27.017,106.956,27.448z"/>
			<path fill="#FFFFFF" d="M128.129,44.829c-1.646,1.668-3.746,2.502-6.309,2.502c-1.27,0-2.51-0.268-3.713-0.805
				c-0.219-0.104-0.433-0.215-0.64-0.338c-0.209-0.125-0.4-0.26-0.578-0.404v4.293h2.828v3.365h-6.64v-2.377V33.688h-2.628v-3.367
				h6.439v1.266c0.221-0.166,0.44-0.32,0.66-0.465c0.218-0.143,0.447-0.268,0.688-0.369c1.182-0.559,2.41-0.834,3.682-0.834
				c2.474,0,4.533,0.834,6.176,2.498c0.832,0.826,1.446,1.746,1.839,2.766c0.396,1.018,0.593,2.135,0.593,3.35
				C130.528,41.042,129.727,43.142,128.129,44.829z M125.4,34.733c-0.917-0.965-2.134-1.451-3.646-1.451
				c-1.401,0-2.574,0.475-3.516,1.422s-1.412,2.232-1.412,3.859c0,0.844,0.124,1.586,0.376,2.223
				c0.253,0.637,0.608,1.193,1.069,1.666c0.964,0.967,2.158,1.451,3.581,1.451c1.489,0,2.684-0.473,3.581-1.42
				c0.461-0.492,0.813-1.055,1.05-1.684c0.243-0.627,0.364-1.352,0.364-2.176C126.848,36.999,126.364,35.702,125.4,34.733z"/>
			<path fill="#FFFFFF" d="M137.345,39.952c0.22,0.967,0.702,1.83,1.446,2.592c1.049,1.01,2.376,1.514,3.977,1.514
				c0.283,0,0.633-0.045,1.051-0.139c0.414-0.094,0.838-0.211,1.264-0.355c0.429-0.145,0.845-0.287,1.249-0.434
				c0.405-0.143,0.74-0.266,1.001-0.369l0.986,3.119c-0.875,0.309-1.622,0.549-2.234,0.723c-0.614,0.176-1.249,0.34-1.906,0.496
				c-0.657,0.154-1.216,0.232-1.676,0.232c-2.604,0-4.777-0.834-6.507-2.502c-1.707-1.666-2.563-3.734-2.563-6.205
				c0-2.51,0.844-4.588,2.53-6.236c1.709-1.645,3.856-2.469,6.439-2.469c2.564,0,4.646,0.814,6.244,2.439
				c0.81,0.844,1.428,1.855,1.856,3.041c0.426,1.184,0.694,2.699,0.806,4.553H137.345z M145.691,34.456
				c-0.854-0.801-1.994-1.203-3.418-1.203c-1.466,0-2.672,0.492-3.614,1.48c-0.506,0.535-0.875,1.154-1.117,1.854h9.53
				C146.786,35.765,146.325,35.052,145.691,34.456z"/>
			<path fill="#FFFFFF" d="M155.002,46.896v-2.375V27.327h-2.825v-3.365h6.637v19.57h2.792v3.363H155.002z"/>
			<path fill="#FFFFFF" d="M164.592,46.896l-0.066-1.387v-11.82H161.8v-3.367h6.537v13.211H171v3.363H164.592z M167.649,27.448
				c-0.503,0.436-1.064,0.65-1.676,0.65c-0.613,0-1.171-0.215-1.676-0.65c-0.46-0.473-0.691-0.996-0.691-1.572
				c0-0.639,0.231-1.174,0.691-1.605c0.505-0.432,1.063-0.648,1.676-0.648c0.612,0,1.173,0.217,1.676,0.648
				c0.459,0.473,0.688,0.998,0.688,1.574C168.337,26.483,168.108,27.017,167.649,27.448z"/>
			<path fill="#FFFFFF" d="M184.026,46.896v-2.375v-9.602c0-0.555-0.128-0.957-0.379-1.203c-0.251-0.244-0.662-0.371-1.232-0.371
				c-0.371,0-0.76,0.053-1.165,0.154c-0.404,0.104-0.851,0.27-1.332,0.494c-0.417,0.186-0.805,0.393-1.166,0.619
				c-0.363,0.225-0.696,0.463-1.003,0.709v8.211h2.531v3.363h-6.342v-2.375V33.688h-2.824v-3.367h6.635v0.986
				c0.746-0.412,1.522-0.746,2.332-1.002c0.813-0.26,1.666-0.387,2.564-0.387c0.744,0,1.429,0.102,2.055,0.309
				c0.624,0.205,1.188,0.547,1.691,1.018c0.964,0.889,1.445,2.049,1.445,3.488v8.799h2.464v3.363H184.026z"/>
			<path fill="#FFFFFF" d="M195.84,39.952c0.219,0.967,0.701,1.83,1.445,2.592c1.049,1.01,2.377,1.514,3.976,1.514
				c0.284,0,0.635-0.045,1.052-0.139c0.415-0.094,0.84-0.211,1.266-0.355c0.427-0.145,0.842-0.287,1.247-0.434
				c0.405-0.143,0.741-0.266,1.004-0.369l0.986,3.119c-0.879,0.309-1.624,0.549-2.235,0.723c-0.613,0.176-1.248,0.34-1.906,0.496
				c-0.658,0.154-1.216,0.232-1.677,0.232c-2.606,0-4.775-0.834-6.507-2.502c-1.706-1.666-2.561-3.734-2.561-6.205
				c0-2.51,0.843-4.588,2.53-6.236c1.707-1.645,3.855-2.469,6.441-2.469c2.562,0,4.644,0.814,6.242,2.439
				c0.811,0.844,1.431,1.855,1.855,3.041c0.428,1.184,0.695,2.699,0.806,4.553H195.84z M204.187,34.456
				c-0.854-0.801-1.994-1.203-3.417-1.203c-1.469,0-2.673,0.492-3.616,1.48c-0.503,0.535-0.877,1.154-1.117,1.854h9.53
				C205.281,35.765,204.822,35.052,204.187,34.456z"/>
		</g>
		<g>
			<path fill="#FFCB05" d="M33.348,30.698c-0.009,0.01-0.018,0.018-0.025,0.025l5.393,5.393l0.637,0.637l0.026-0.025l-0.635-0.635
				L33.348,30.698z"/>
			<path fill="#FFCB05" d="M24.345,26.327l-2.341,2.34l2.327,2.326c0.389,0.389,2.44,2.215,4.643,0.014l2.341-2.342l-2.328-2.328
				C28.598,25.948,26.547,24.126,24.345,26.327z"/>
			<path fill="#FFCB05" d="M58.363,37.968c-0.209,0.199-0.418,0.395-0.637,0.574C57.937,38.37,58.15,38.171,58.363,37.968z"/>
			<path fill="#FFCB05" d="M41.469,38.704l-0.025,0.025c2.708,2.166,6.091,3.08,9.371,2.738l0.022-0.021
				C47.558,41.786,44.175,40.87,41.469,38.704z"/>
			<g>
				<g>
					<path fill="#FFCB05" d="M10.822,17.884c0.018,0.014,0.036,0.021,0.054,0.031c0.258,0.17,0.507,0.363,0.755,0.551
						c0.07,0.057,0.144,0.107,0.217,0.162l7.349-7.348c4.108-4.109,10.789-4.109,14.896-0.002l13.903,13.902
						c0.123-0.051,0.245-0.102,0.372-0.139c1.31-0.398,2.793-0.082,3.83,0.955c1.494,1.494,1.496,3.914,0.003,5.412l-0.01,0.01
						c-1.498,1.492-3.917,1.49-5.411-0.004c-0.222-0.223-0.407-0.467-0.564-0.725c-0.642-1.055-0.72-2.352-0.248-3.471
						L32.058,13.312c-2.985-2.984-7.842-2.984-10.827,0.002l-7.29,7.289l0.635,0.637l5.394,5.393c0.799-0.799,1.594-1.594,2.34-2.34
						c3.844-3.844,7.886-0.813,8.71,0.012c0.688,0.688,9.756,9.756,9.756,9.756l1.664,1.664c3.898,3.898,10.219,3.898,14.116,0.002
						c3.9-3.9,3.898-10.221,0-14.119L40.776,5.825h-0.001c-0.244-0.244-0.495-0.473-0.756-0.686
						C32.435-1.714,20.885-1.712,13.3,5.142c-0.261,0.213-0.514,0.438-0.758,0.684L2.481,15.886
						C5.356,15.589,8.313,16.253,10.822,17.884z"/>
					<path fill="#FFCB05" d="M41.444,38.729l-7.352,7.352c-1.981,1.98-4.628,3.074-7.449,3.074
						c-2.819-0.002-5.463-1.092-7.446-3.074c0,0,0,0-0.001-0.002l-7.366-7.365c-2.646,2.111-6,3.086-9.346,2.736l10.055,10.055h0
						c0.245,0.244,0.497,0.473,0.757,0.688c7.585,6.854,19.135,6.852,26.72-0.002c0.261-0.213,0.512-0.441,0.755-0.684
						l10.041-10.039C47.535,41.81,44.152,40.896,41.444,38.729z"/>
					<path fill="#FFCB05" d="M21.231,44.046L21.231,44.046c1.439,1.439,3.363,2.23,5.413,2.232c2.054-0.002,3.977-0.793,5.415-2.23
						l7.293-7.295l-0.637-0.637l-5.393-5.393c-0.792,0.791-1.577,1.578-2.316,2.316c-3.845,3.844-7.887,0.813-8.711-0.012
						c-0.372-0.373-3.191-3.191-5.703-5.703c0.342,3.273-0.567,6.652-2.726,9.357L21.231,44.046z"/>
					<path fill="#FFCB05" d="M13.837,36.653l-6.483-6.484c0.589-1.391,0.32-3.059-0.811-4.193l-0.01-0.014
						c-1.497-1.488-3.917-1.488-5.412,0.006c-0.223,0.225-0.408,0.467-0.565,0.727c-0.897,1.475-0.71,3.42,0.563,4.693
						c0.459,0.459,1.007,0.777,1.591,0.957c0.855,0.258,1.78,0.207,2.608-0.143l6.484,6.484L13.837,36.653z"/>
				</g>
			</g>
		</g>
	</g>
</g>
</svg>
