<?xml version="1.0" encoding="utf-8"?>
<!-- Generator: Adobe Illustrator 16.0.0, SVG Export Plug-In . SVG Version: 6.00 Build 0)  -->
<!DOCTYPE svg PUBLIC "-//W3C//DTD SVG 1.1//EN" "http://www.w3.org/Graphics/SVG/1.1/DTD/svg11.dtd">
<svg version="1.1" id="Layer_1" xmlns="http://www.w3.org/2000/svg" xmlns:xlink="http://www.w3.org/1999/xlink" x="0px" y="0px"
	 width="78.369px" height="50.359px" viewBox="0 0 78.369 50.359" enable-background="new 0 0 78.369 50.359" xml:space="preserve">
<g>
	<path d="M78.043,36.547c-1.225-5.012-5.678-8.512-10.832-8.512c-1.824,0-3.637,0.455-5.244,1.311
		c-3.271,1.744-5.43,4.957-5.842,8.584h-9.051c-1.77,0-3.436-0.689-4.697-1.951c-1.258-1.262-1.951-2.928-1.951-4.695v-9.031
		c5.568-0.627,9.91-5.363,9.91-11.088c0-0.869-0.107-1.764-0.326-2.652C48.785,3.502,44.332,0,39.178,0
		c-1.824,0-3.637,0.455-5.244,1.313c-3.277,1.746-5.436,4.967-5.844,8.6h-9.031c-5.045,0-9.146,4.104-9.146,9.146v9.055
		c-1.395,0.158-2.756,0.572-3.994,1.232C2.269,31.289,0,35.064,0,39.199c0,6.139,4.996,11.143,11.139,11.16h0.004h0.042
		c6.141-0.018,11.133-5.021,11.133-11.16c0-0.869-0.109-1.762-0.326-2.652c-1.119-4.6-4.969-7.918-9.584-8.434v-9.055
		c0-3.666,2.982-6.65,6.65-6.65h9.031c0.576,5.156,4.682,9.262,9.836,9.84v9.035c0,2.434,0.955,4.73,2.686,6.461
		c1.732,1.732,4.027,2.686,6.463,2.686h9.047c0.613,5.563,5.34,9.914,11.066,9.93h0.004h0.043
		c6.141-0.018,11.135-5.021,11.135-11.16C78.369,38.33,78.262,37.438,78.043,36.547z M19.822,39.199
		c0,4.777-3.867,8.652-8.643,8.662h-0.037c-4.777-0.01-8.645-3.885-8.645-8.662c0-3.314,1.859-6.191,4.596-7.648
		c0.861-0.459,1.813-0.771,2.818-0.916v5.48C9.807,36.16,9.699,36.207,9.6,36.262c-1.049,0.559-1.764,1.662-1.764,2.938
		c0,1.832,1.484,3.316,3.318,3.322h0.014c1.832-0.006,3.316-1.49,3.316-3.322c0-0.275-0.035-0.537-0.098-0.793
		c-0.252-1.041-1-1.883-1.979-2.281v-5.494c3.51,0.51,6.33,3.113,7.158,6.51C19.729,37.801,19.822,38.488,19.822,39.199z
		 M28.102,12.408V9.912h1.25h0.322h0.467h0.465h0.004h5.475c0.297-0.723,0.834-1.32,1.518-1.684c0.465-0.25,0.998-0.391,1.561-0.391
		c0.459,0,0.889,0.102,1.287,0.27c0.018,0.008,0.037,0.018,0.054,0.027c0.161,0.07,0.313,0.15,0.458,0.244
		c0.047,0.031,0.09,0.061,0.135,0.09c0.107,0.08,0.207,0.164,0.305,0.254c0.061,0.055,0.123,0.107,0.18,0.168
		c0.059,0.063,0.111,0.131,0.166,0.199c0.135,0.166,0.248,0.35,0.348,0.539c0.02,0.039,0.043,0.08,0.063,0.123
		c0.092,0.189,0.168,0.383,0.219,0.59c0.006,0.012,0.012,0.021,0.012,0.031c0.031,0.125,0.055,0.254,0.074,0.383
		c0,0,0,0.006,0,0.012c0.016,0.129,0.025,0.26,0.025,0.396c0,1.387-0.854,2.572-2.061,3.072c-0.215,0.086-0.441,0.15-0.676,0.191
		c-0.191,0.035-0.383,0.061-0.582,0.061h-0.014c-0.189,0-0.373-0.025-0.553-0.059c-0.234-0.039-0.459-0.1-0.672-0.184
		c-0.215-0.086-0.42-0.189-0.607-0.313c-0.02-0.018-0.037-0.029-0.055-0.041c-0.143-0.104-0.277-0.215-0.402-0.332
		c-0.025-0.025-0.053-0.049-0.078-0.074c-0.123-0.129-0.236-0.264-0.34-0.408c-0.041-0.064-0.078-0.129-0.119-0.197
		c-0.055-0.088-0.104-0.182-0.152-0.279c-0.029-0.061-0.064-0.125-0.094-0.193h-5.469l0,0h-0.475h-0.469h-0.318H28.102z
		 M67.191,47.861c-4.357-0.01-7.949-3.24-8.549-7.432h5.49c0.041,0.105,0.09,0.211,0.143,0.313c0.561,1.049,1.662,1.762,2.936,1.762
		c1.833,0,3.318-1.484,3.322-3.314v-0.016c-0.004-1.834-1.489-3.318-3.322-3.318c-0.273,0-0.537,0.037-0.793,0.098
		c-1.039,0.252-1.881,1.002-2.279,1.977h-5.496c0.406-2.768,2.119-5.113,4.5-6.379c1.215-0.648,2.596-1.016,4.068-1.016
		c4.072,0,7.48,2.813,8.404,6.605c0.162,0.66,0.258,1.348,0.258,2.059c0,4.777-3.87,8.652-8.646,8.662H67.191z"/>
</g>
</svg>
