<?xml version="1.0" encoding="utf-8"?>
<!-- Generator: Adobe Illustrator 16.0.0, SVG Export Plug-In . SVG Version: 6.00 Build 0)  -->
<!DOCTYPE svg PUBLIC "-//W3C//DTD SVG 1.1//EN" "http://www.w3.org/Graphics/SVG/1.1/DTD/svg11.dtd">
<svg version="1.1" id="Layer_1" xmlns="http://www.w3.org/2000/svg" xmlns:xlink="http://www.w3.org/1999/xlink" x="0px" y="0px"
	 width="240.782px" height="50.359px" viewBox="0 0 240.782 50.359" enable-background="new 0 0 240.782 50.359"
	 xml:space="preserve">
<g>
	<g>
		<path d="M78.044,36.547c-1.226-5.012-5.678-8.512-10.832-8.512c-1.825,0-3.638,0.455-5.244,1.311
			c-3.271,1.744-5.43,4.959-5.843,8.586h-9.051c-1.769,0-3.435-0.691-4.696-1.953c-1.258-1.26-1.951-2.926-1.951-4.693v-9.033
			c5.567-0.625,9.91-5.363,9.91-11.088c0-0.869-0.108-1.762-0.326-2.652C48.786,3.504,44.333,0,39.179,0
			c-1.824,0-3.637,0.457-5.244,1.313c-3.277,1.746-5.436,4.969-5.844,8.6h-9.032c-5.044,0-9.146,4.104-9.146,9.148v9.053
			c-1.395,0.158-2.756,0.574-3.994,1.232C2.27,31.291,0,35.066,0,39.199c0,6.139,4.996,11.143,11.139,11.16h0.004h0.043
			c6.141-0.018,11.134-5.021,11.134-11.16c0-0.869-0.109-1.762-0.326-2.652c-1.12-4.6-4.97-7.918-9.584-8.434v-9.053
			c0-3.668,2.982-6.65,6.649-6.65h9.032c0.576,5.154,4.682,9.26,9.836,9.84v9.035c0,2.432,0.955,4.729,2.686,6.461
			c1.731,1.73,4.027,2.684,6.462,2.684h9.048c0.613,5.564,5.34,9.916,11.066,9.93h0.004h0.043c6.14-0.018,11.134-5.021,11.134-11.16
			C78.369,38.33,78.262,37.438,78.044,36.547z M19.823,39.199c0,4.777-3.868,8.652-8.644,8.662h-0.037
			c-4.777-0.01-8.644-3.885-8.644-8.662c0-3.314,1.858-6.191,4.595-7.646c0.862-0.461,1.813-0.773,2.818-0.918v5.48
			c-0.105,0.047-0.213,0.094-0.313,0.146c-1.048,0.559-1.764,1.664-1.764,2.938c0,1.834,1.484,3.318,3.319,3.322h0.013
			c1.832-0.004,3.316-1.488,3.316-3.322c0-0.273-0.035-0.537-0.098-0.793c-0.252-1.039-0.999-1.883-1.978-2.281v-5.492
			c3.509,0.508,6.329,3.113,7.157,6.508C19.729,37.801,19.823,38.488,19.823,39.199z M28.103,12.41V9.912h1.25h0.321h0.468h0.465
			h0.004h5.475c0.297-0.723,0.833-1.318,1.518-1.684c0.465-0.248,0.998-0.391,1.561-0.391c0.459,0,0.889,0.104,1.287,0.271
			c0.018,0.006,0.036,0.016,0.055,0.025c0.159,0.07,0.312,0.15,0.456,0.244c0.047,0.031,0.091,0.063,0.136,0.092
			c0.107,0.078,0.207,0.162,0.305,0.252c0.06,0.055,0.123,0.109,0.18,0.168c0.059,0.063,0.111,0.133,0.166,0.201
			c0.135,0.164,0.248,0.348,0.348,0.537c0.02,0.041,0.042,0.082,0.063,0.123c0.091,0.189,0.167,0.383,0.219,0.592
			c0.005,0.01,0.012,0.02,0.012,0.031c0.031,0.123,0.055,0.252,0.073,0.383c0,0.004,0,0.006,0,0.006
			c0.017,0.135,0.026,0.264,0.026,0.4c0,1.387-0.854,2.574-2.061,3.074c-0.215,0.084-0.441,0.148-0.677,0.189
			c-0.19,0.035-0.383,0.063-0.581,0.063h-0.015c-0.188,0-0.372-0.027-0.552-0.061c-0.235-0.039-0.459-0.098-0.672-0.184
			c-0.215-0.086-0.42-0.188-0.607-0.313c-0.02-0.018-0.037-0.029-0.055-0.041c-0.143-0.102-0.277-0.213-0.403-0.332
			c-0.025-0.025-0.052-0.049-0.078-0.072c-0.122-0.129-0.235-0.266-0.339-0.41c-0.041-0.064-0.078-0.129-0.119-0.195
			c-0.055-0.088-0.104-0.182-0.152-0.279c-0.029-0.063-0.065-0.127-0.094-0.193h-5.469h-0.001H30.14h-0.469h-0.318H28.103z
			 M67.192,47.861c-4.357-0.01-7.949-3.24-8.549-7.432h5.49c0.041,0.105,0.089,0.211,0.142,0.314
			c0.562,1.047,1.663,1.762,2.937,1.762c1.834,0,3.318-1.484,3.322-3.316v-0.016c-0.004-1.834-1.488-3.318-3.322-3.318
			c-0.273,0-0.537,0.037-0.793,0.098c-1.039,0.252-1.881,1.002-2.279,1.979h-5.497c0.406-2.77,2.12-5.115,4.5-6.379
			c1.216-0.648,2.597-1.018,4.069-1.018c4.072,0,7.479,2.814,8.403,6.605c0.162,0.66,0.258,1.348,0.258,2.059
			c0,4.777-3.868,8.652-8.646,8.662H67.192z"/>
	</g>
	<g>
		<path d="M105.838,37.049c-0.254,0.58-0.639,1.086-1.152,1.512c-0.52,0.432-1.114,0.746-1.783,0.949
			c-0.666,0.199-1.402,0.301-2.199,0.301h-2.732v4.088v1.549h-4.67v-2.195h2.002v-10.57h-2.002V30.49h7.178
			c0.849,0,1.623,0.094,2.326,0.291c0.703,0.195,1.32,0.504,1.857,0.934c0.529,0.432,0.922,0.93,1.176,1.498
			c0.252,0.574,0.376,1.221,0.376,1.947C106.214,35.842,106.09,36.477,105.838,37.049z M103.348,34.02
			c-0.133-0.314-0.304-0.559-0.512-0.732c-0.222-0.189-0.54-0.336-0.955-0.443c-0.416-0.109-0.959-0.162-1.621-0.162h-2.289v4.936
			h2.289c0.609,0,1.11-0.057,1.521-0.164c0.409-0.107,0.745-0.252,1.013-0.441c0.238-0.176,0.422-0.4,0.555-0.674
			c0.135-0.277,0.201-0.629,0.201-1.061C103.549,34.756,103.482,34.338,103.348,34.02z"/>
		<path d="M110.009,45.447l-0.042-0.904V36.83h-1.844v-2.195h4.422v8.617h1.801v2.195H110.009z M112.076,32.762
			c-0.338,0.281-0.716,0.424-1.136,0.424c-0.412,0-0.788-0.143-1.132-0.424c-0.311-0.307-0.465-0.65-0.465-1.027
			c0-0.416,0.154-0.764,0.465-1.045c0.344-0.283,0.72-0.422,1.132-0.422c0.42,0,0.798,0.139,1.136,0.422
			c0.311,0.309,0.469,0.646,0.469,1.025C112.545,32.131,112.387,32.479,112.076,32.762z"/>
		<path d="M126.537,44.098c-1.115,1.088-2.536,1.629-4.27,1.629c-0.863,0-1.7-0.17-2.515-0.52c-0.146-0.068-0.293-0.145-0.432-0.223
			c-0.141-0.082-0.271-0.172-0.391-0.26v2.795h1.912v2.193h-4.492v-1.547V36.83h-1.778v-2.195h4.358v0.824
			c0.148-0.105,0.301-0.205,0.447-0.299c0.146-0.098,0.299-0.176,0.465-0.244c0.801-0.363,1.631-0.545,2.488-0.545
			c1.676,0,3.072,0.545,4.182,1.635c0.56,0.533,0.977,1.139,1.245,1.799c0.266,0.664,0.399,1.395,0.399,2.188
			C128.157,41.629,127.617,42.998,126.537,44.098z M124.688,37.516c-0.625-0.633-1.444-0.947-2.466-0.947
			c-0.948,0-1.741,0.311-2.38,0.926c-0.635,0.617-0.955,1.457-0.955,2.518c0,0.547,0.086,1.033,0.258,1.449
			c0.168,0.414,0.408,0.779,0.721,1.088c0.652,0.633,1.457,0.943,2.424,0.943c1.007,0,1.815-0.309,2.421-0.926
			c0.312-0.32,0.551-0.688,0.711-1.098c0.165-0.408,0.241-0.881,0.241-1.418C125.663,38.992,125.343,38.148,124.688,37.516z"/>
		<path d="M132.91,40.918c0.149,0.629,0.475,1.193,0.979,1.689c0.71,0.66,1.608,0.986,2.689,0.986c0.192,0,0.429-0.027,0.713-0.092
			c0.278-0.061,0.567-0.135,0.857-0.229c0.285-0.092,0.568-0.189,0.839-0.283c0.275-0.092,0.504-0.174,0.682-0.242l0.667,2.035
			c-0.594,0.201-1.097,0.355-1.513,0.473c-0.414,0.113-0.846,0.225-1.288,0.322c-0.447,0.102-0.821,0.148-1.135,0.148
			c-1.765,0-3.23-0.541-4.403-1.629c-1.155-1.088-1.731-2.434-1.731-4.047c0-1.637,0.569-2.992,1.711-4.068
			c1.155-1.072,2.61-1.611,4.355-1.611c1.736,0,3.143,0.533,4.227,1.594c0.547,0.551,0.967,1.213,1.253,1.984
			c0.29,0.768,0.471,1.76,0.549,2.969H132.91z M138.554,37.332c-0.576-0.525-1.347-0.781-2.306-0.781
			c-0.995,0-1.812,0.32-2.448,0.965c-0.339,0.35-0.593,0.754-0.757,1.203h6.448C139.296,38.186,138.987,37.721,138.554,37.332z"/>
		<path d="M145.01,45.447v-1.549V32.682h-1.908V30.49h4.487v12.762h1.89v2.195H145.01z"/>
		<path d="M151.643,45.447l-0.05-0.904V36.83h-1.838v-2.195h4.418v8.617h1.803v2.195H151.643z M153.706,32.762
			c-0.338,0.281-0.719,0.424-1.133,0.424s-0.79-0.143-1.132-0.424c-0.314-0.307-0.468-0.65-0.468-1.027
			c0-0.416,0.153-0.764,0.468-1.045c0.342-0.283,0.718-0.422,1.132-0.422s0.795,0.139,1.133,0.422
			c0.313,0.309,0.467,0.646,0.467,1.025C154.173,32.131,154.019,32.479,153.706,32.762z"/>
		<path d="M164.919,45.447v-1.549v-6.264c0-0.363-0.083-0.623-0.256-0.787c-0.168-0.158-0.444-0.24-0.83-0.24
			c-0.255,0-0.516,0.033-0.789,0.102c-0.276,0.068-0.576,0.174-0.901,0.32c-0.282,0.123-0.548,0.256-0.788,0.406
			c-0.245,0.145-0.473,0.301-0.678,0.459v5.357h1.711v2.195h-4.291v-1.549V36.83h-1.911v-2.195h4.491v0.643
			c0.506-0.268,1.028-0.482,1.575-0.652c0.548-0.168,1.128-0.254,1.733-0.254c0.503,0,0.973,0.068,1.39,0.203
			c0.424,0.139,0.806,0.357,1.146,0.662c0.649,0.58,0.978,1.34,0.978,2.279v5.736h1.664v2.195H164.919z"/>
		<path d="M173.054,40.918c0.144,0.629,0.477,1.193,0.978,1.689c0.713,0.66,1.608,0.986,2.688,0.986c0.196,0,0.43-0.027,0.711-0.092
			c0.283-0.061,0.567-0.135,0.856-0.229c0.29-0.092,0.571-0.189,0.846-0.283c0.272-0.092,0.503-0.174,0.676-0.242l0.667,2.035
			c-0.591,0.201-1.097,0.355-1.51,0.473c-0.415,0.113-0.842,0.225-1.29,0.322c-0.444,0.102-0.818,0.148-1.129,0.148
			c-1.767,0-3.231-0.541-4.405-1.629c-1.157-1.088-1.733-2.434-1.733-4.047c0-1.637,0.569-2.992,1.715-4.068
			c1.154-1.072,2.607-1.611,4.352-1.611c1.737,0,3.144,0.533,4.226,1.594c0.548,0.551,0.969,1.213,1.258,1.984
			c0.29,0.768,0.469,1.76,0.547,2.969H173.054z M178.696,37.332c-0.573-0.525-1.343-0.781-2.308-0.781
			c-0.998,0-1.808,0.32-2.448,0.965c-0.34,0.35-0.588,0.754-0.752,1.203h6.446C179.439,38.186,179.132,37.721,178.696,37.332z"/>
		<path d="M189.035,45.447v-2.195h2.042v-10.57h-2.042V30.49h4.73l-0.021,12.762h4.803V39.73h2.623v5.717H189.035z"/>
		<path d="M210.32,45.447v-0.723c-0.457,0.252-0.954,0.461-1.478,0.623c-0.526,0.16-1.064,0.24-1.614,0.24
			c-1.141,0-2.088-0.346-2.846-1.025c-0.752-0.658-1.129-1.473-1.129-2.438c0-1.047,0.441-1.912,1.333-2.598
			c0.428-0.35,0.922-0.602,1.475-0.754c0.559-0.154,1.167-0.232,1.837-0.232c0.518,0,1.067,0.066,1.644,0.203
			c0.117,0.023,0.246,0.057,0.374,0.088c0.138,0.035,0.27,0.078,0.404,0.131v-1.246c0-0.268-0.041-0.477-0.123-0.627
			c-0.079-0.146-0.19-0.26-0.324-0.34c-0.179-0.109-0.398-0.191-0.664-0.252c-0.264-0.061-0.591-0.092-0.98-0.092
			c-0.189,0-0.412,0.023-0.664,0.072c-0.254,0.045-0.509,0.105-0.766,0.178c-0.261,0.08-0.506,0.15-0.737,0.223
			c-0.231,0.076-0.421,0.139-0.591,0.191l-0.796-1.793c0.518-0.184,0.966-0.338,1.334-0.449c0.365-0.115,0.764-0.221,1.176-0.314
			c0.415-0.094,0.778-0.143,1.088-0.143c0.685,0,1.305,0.064,1.857,0.191c0.556,0.129,1.047,0.33,1.478,0.598
			c0.45,0.309,0.771,0.676,0.979,1.104c0.208,0.434,0.315,0.918,0.315,1.453v5.535h1.75v2.195H210.32z M210.32,41.178
			c-0.313-0.145-0.617-0.266-0.91-0.359c-0.403-0.137-0.839-0.203-1.311-0.203c-0.415,0-0.763,0.043-1.038,0.129
			c-0.269,0.092-0.488,0.207-0.652,0.355c-0.371,0.293-0.559,0.662-0.559,1.105c0,0.338,0.144,0.639,0.422,0.904
			c0.137,0.123,0.301,0.219,0.494,0.285c0.189,0.064,0.436,0.098,0.733,0.098c0.483,0,1.01-0.125,1.58-0.383
			c0.471-0.211,0.886-0.479,1.24-0.801V41.178z"/>
		<path d="M227.257,43.977c-1.123,1.074-2.591,1.611-4.398,1.611c-0.799,0-1.594-0.166-2.375-0.504
			c-0.164-0.066-0.316-0.145-0.459-0.23c-0.141-0.086-0.287-0.184-0.434-0.291v0.885h-2.576v-1.549V32.682h-1.916V30.49h4.492v4.969
			c0.281-0.215,0.573-0.385,0.869-0.521c0.856-0.375,1.696-0.566,2.513-0.566c1.717,0,3.146,0.523,4.284,1.57
			c1.133,1.039,1.694,2.344,1.694,3.93C228.951,41.547,228.39,42.92,227.257,43.977z M225.394,37.453
			c-0.622-0.617-1.427-0.926-2.4-0.926c-0.948,0-1.746,0.314-2.404,0.945c-0.679,0.648-1.019,1.473-1.019,2.479
			c0,0.563,0.085,1.055,0.252,1.479c0.173,0.422,0.415,0.781,0.726,1.078c0.635,0.617,1.438,0.928,2.401,0.928
			c1.006,0,1.822-0.316,2.444-0.945c0.635-0.658,0.957-1.52,0.957-2.578C226.351,38.918,226.028,38.102,225.394,37.453z"/>
		<path d="M239.425,44.842c-0.427,0.311-0.924,0.535-1.486,0.686c-0.561,0.146-1.182,0.221-1.851,0.221
			c-0.767,0-1.463-0.127-2.089-0.383c-0.144-0.053-0.295-0.127-0.436-0.223v0.305h-2.448v-4.592h2.448
			c0.015,0.703,0.082,1.199,0.205,1.5c0.125,0.305,0.292,0.543,0.503,0.717c0.456,0.387,1.1,0.582,1.936,0.582
			c0.617,0,1.144-0.141,1.571-0.422c0.207-0.148,0.356-0.287,0.438-0.436c0.082-0.137,0.123-0.289,0.123-0.451
			c0-0.215-0.029-0.373-0.094-0.482c-0.056-0.107-0.141-0.193-0.243-0.26c-0.146-0.109-0.392-0.211-0.733-0.303
			c-0.34-0.096-0.805-0.188-1.401-0.283c-0.649-0.105-1.231-0.244-1.746-0.402c-0.509-0.162-0.934-0.355-1.272-0.586
			c-0.421-0.266-0.714-0.602-0.892-1.002c-0.176-0.406-0.267-0.846-0.267-1.33c0-1.021,0.406-1.842,1.223-2.461
			c0.772-0.572,1.705-0.865,2.802-0.865c0.416,0,0.813,0.047,1.199,0.131c0.384,0.088,0.746,0.229,1.088,0.414h2.314v4.008h-2.379
			c-0.031-0.592-0.099-1.02-0.204-1.281c-0.103-0.258-0.252-0.461-0.441-0.613c-0.208-0.158-0.437-0.281-0.679-0.373
			c-0.246-0.082-0.541-0.129-0.875-0.129c-0.301,0-0.547,0.031-0.734,0.092c-0.192,0.059-0.351,0.145-0.468,0.252
			c-0.257,0.227-0.38,0.492-0.38,0.787c0,0.186,0.026,0.32,0.079,0.412c0.053,0.09,0.116,0.154,0.189,0.209
			c0.135,0.066,0.357,0.146,0.667,0.242c0.311,0.096,0.746,0.18,1.311,0.26c0.787,0.137,1.478,0.297,2.068,0.484
			c0.594,0.191,1.053,0.432,1.38,0.727c0.322,0.293,0.562,0.635,0.708,1.014c0.149,0.387,0.223,0.795,0.223,1.24
			C240.782,43.32,240.331,44.186,239.425,44.842z"/>
	</g>
</g>
</svg>
