<?xml version="1.0" encoding="utf-8"?>
<!-- Generator: Adobe Illustrator 16.0.0, SVG Export Plug-In . SVG Version: 6.00 Build 0)  -->
<!DOCTYPE svg PUBLIC "-//W3C//DTD SVG 1.1//EN" "http://www.w3.org/Graphics/SVG/1.1/DTD/svg11.dtd">
<svg version="1.1" id="Layer_1" xmlns="http://www.w3.org/2000/svg" xmlns:xlink="http://www.w3.org/1999/xlink" x="0px" y="0px"
	 width="158.831px" height="91.033px" viewBox="0 0 158.831 91.033" enable-background="new 0 0 158.831 91.033"
	 xml:space="preserve">
<g>
	<g>
		<path d="M121.262,39.357c-1.32-5.398-6.113-9.166-11.664-9.166c-1.965,0-3.918,0.488-5.646,1.41
			c-3.523,1.879-5.848,5.34-6.293,9.244h-9.746c-1.904,0-3.699-0.742-5.057-2.102c-1.356-1.357-2.102-3.152-2.102-5.055v-9.727
			c5.996-0.674,10.672-5.775,10.672-11.939c0-0.936-0.117-1.898-0.352-2.857C89.756,3.773,84.961,0,79.411,0
			c-1.965,0-3.916,0.492-5.646,1.414c-3.53,1.881-5.854,5.35-6.293,9.26h-9.727c-5.432,0-9.85,4.42-9.85,9.852v9.75
			c-1.502,0.17-2.969,0.617-4.301,1.326c-3.93,2.094-6.373,6.16-6.373,10.611c0,6.609,5.379,11.998,11.994,12.018h0.004h0.047
			c6.611-0.02,11.988-5.408,11.988-12.018c0-0.936-0.117-1.896-0.35-2.855c-1.207-4.953-5.352-8.527-10.32-9.082v-9.75
			c0-3.949,3.211-7.162,7.16-7.162h9.727c0.619,5.553,5.041,9.973,10.592,10.596v9.73c0,2.619,1.027,5.094,2.891,6.957
			c1.865,1.865,4.337,2.891,6.959,2.891h9.744c0.66,5.992,5.75,10.678,11.916,10.693h0.004h0.047
			c6.611-0.02,11.988-5.408,11.988-12.018C121.612,41.277,121.497,40.316,121.262,39.357z M58.567,42.213
			c0,5.145-4.164,9.316-9.307,9.328h-0.041c-5.145-0.012-9.307-4.184-9.307-9.328c0-3.57,2-6.668,4.947-8.236
			c0.928-0.494,1.953-0.83,3.035-0.986v5.902c-0.113,0.049-0.23,0.1-0.338,0.156c-1.127,0.602-1.898,1.791-1.898,3.164
			c0,1.973,1.598,3.572,3.574,3.578h0.014c1.973-0.006,3.572-1.605,3.572-3.578c0-0.295-0.039-0.578-0.105-0.854
			c-0.271-1.121-1.076-2.027-2.129-2.457v-5.916c3.777,0.549,6.814,3.354,7.707,7.01C58.465,40.707,58.567,41.447,58.567,42.213z
			 M67.483,13.363v-2.689h1.346h0.346h0.504h0.502h0.004h5.895c0.32-0.777,0.896-1.42,1.635-1.813c0.5-0.268,1.074-0.42,1.68-0.42
			c0.494,0,0.957,0.109,1.387,0.291c0.02,0.008,0.039,0.018,0.059,0.029c0.172,0.074,0.336,0.16,0.49,0.262
			c0.051,0.033,0.1,0.066,0.146,0.098c0.117,0.086,0.223,0.176,0.328,0.273c0.064,0.059,0.133,0.115,0.193,0.18
			c0.064,0.068,0.121,0.143,0.18,0.217c0.145,0.178,0.268,0.375,0.375,0.578c0.02,0.043,0.045,0.088,0.066,0.133
			c0.098,0.205,0.18,0.412,0.236,0.637c0.004,0.012,0.012,0.021,0.012,0.033c0.033,0.135,0.059,0.273,0.08,0.412
			c0,0,0,0.006,0,0.012c0.018,0.141,0.027,0.279,0.027,0.428c0,1.492-0.92,2.77-2.219,3.309c-0.23,0.092-0.475,0.162-0.729,0.205
			c-0.205,0.039-0.412,0.066-0.626,0.066h-0.016c-0.203,0-0.4-0.027-0.594-0.064c-0.254-0.041-0.494-0.105-0.723-0.197
			c-0.232-0.092-0.453-0.203-0.654-0.336c-0.021-0.02-0.041-0.031-0.059-0.045c-0.154-0.109-0.299-0.23-0.436-0.357
			c-0.027-0.027-0.055-0.053-0.084-0.078c-0.131-0.139-0.254-0.285-0.365-0.441c-0.043-0.068-0.084-0.139-0.127-0.211
			c-0.059-0.096-0.111-0.195-0.164-0.301c-0.031-0.066-0.07-0.137-0.102-0.209h-5.889h-0.002h-0.51h-0.504h-0.344H67.483z
			 M109.577,51.541c-4.691-0.012-8.561-3.49-9.205-8.004h5.912c0.043,0.113,0.096,0.229,0.152,0.338
			c0.604,1.129,1.791,1.896,3.162,1.896c1.975,0,3.572-1.598,3.578-3.57v-0.016c-0.006-1.975-1.604-3.574-3.578-3.574
			c-0.295,0-0.578,0.041-0.854,0.105c-1.12,0.271-2.025,1.08-2.455,2.129h-5.92c0.438-2.98,2.283-5.506,4.846-6.869
			c1.31-0.697,2.797-1.094,4.383-1.094c4.385,0,8.055,3.029,9.049,7.113c0.174,0.711,0.277,1.451,0.277,2.217
			c0,5.145-4.164,9.316-9.309,9.328H109.577z"/>
	</g>
	<g>
		<path d="M13.502,77.396c-0.273,0.623-0.688,1.166-1.244,1.627c-0.559,0.463-1.197,0.803-1.918,1.02
			c-0.717,0.217-1.51,0.324-2.369,0.324H5.028v4.4v1.672H0v-2.363h2.155V72.689H0V70.33h7.731c0.912,0,1.746,0.102,2.503,0.314
			c0.758,0.209,1.424,0.543,1.999,1.006c0.572,0.465,0.996,1,1.27,1.613c0.27,0.617,0.404,1.313,0.404,2.096
			C13.907,76.094,13.772,76.777,13.502,77.396z M10.819,74.133c-0.143-0.338-0.326-0.602-0.551-0.791
			c-0.238-0.201-0.58-0.361-1.027-0.475c-0.45-0.121-1.033-0.178-1.746-0.178H5.028v5.316h2.467c0.654,0,1.197-0.061,1.639-0.176
			c0.439-0.117,0.801-0.273,1.09-0.475c0.254-0.189,0.453-0.434,0.596-0.729c0.145-0.299,0.217-0.676,0.217-1.141
			C11.036,74.924,10.963,74.473,10.819,74.133z"/>
		<path d="M17.995,86.439l-0.047-0.975v-8.309h-1.986v-2.363h4.764v9.283h1.938v2.363H17.995z M20.221,72.775
			c-0.365,0.305-0.771,0.457-1.225,0.457c-0.443,0-0.85-0.152-1.217-0.457c-0.336-0.33-0.504-0.699-0.504-1.104
			c0-0.449,0.168-0.822,0.504-1.127c0.367-0.303,0.773-0.453,1.217-0.453c0.453,0,0.859,0.15,1.225,0.453
			c0.332,0.334,0.504,0.699,0.504,1.105C20.725,72.1,20.553,72.475,20.221,72.775z"/>
		<path d="M35.793,84.984c-1.199,1.172-2.73,1.756-4.6,1.756c-0.928,0-1.828-0.184-2.707-0.561
			c-0.158-0.074-0.314-0.156-0.463-0.238c-0.15-0.09-0.293-0.184-0.422-0.281v3.012h2.061v2.361h-4.84v-1.666V77.156h-1.914v-2.363
			h4.693v0.889c0.16-0.113,0.322-0.223,0.48-0.322c0.158-0.104,0.324-0.189,0.502-0.26c0.861-0.395,1.756-0.588,2.682-0.588
			c1.803,0,3.307,0.588,4.5,1.758c0.605,0.576,1.055,1.225,1.344,1.939c0.285,0.715,0.43,1.5,0.43,2.354
			C37.54,82.324,36.956,83.803,35.793,84.984z M33.801,77.896c-0.672-0.682-1.555-1.02-2.654-1.02c-1.023,0-1.875,0.332-2.563,0.996
			c-0.686,0.666-1.027,1.568-1.027,2.713c0,0.59,0.09,1.113,0.277,1.559c0.178,0.449,0.438,0.838,0.775,1.172
			c0.699,0.68,1.568,1.016,2.609,1.016c1.086,0,1.955-0.33,2.607-0.994c0.336-0.348,0.594-0.742,0.768-1.184
			c0.178-0.439,0.26-0.947,0.26-1.527C34.854,79.486,34.506,78.578,33.801,77.896z"/>
		<path d="M42.657,81.561c0.16,0.68,0.514,1.285,1.053,1.82c0.766,0.709,1.734,1.061,2.896,1.061c0.207,0,0.465-0.029,0.769-0.098
			c0.299-0.064,0.609-0.145,0.922-0.248c0.309-0.1,0.611-0.203,0.904-0.303c0.297-0.1,0.541-0.188,0.734-0.26l0.717,2.189
			c-0.639,0.219-1.182,0.385-1.627,0.51c-0.445,0.123-0.912,0.242-1.388,0.348c-0.48,0.107-0.885,0.16-1.221,0.16
			c-1.9,0-3.478-0.584-4.742-1.756c-1.242-1.17-1.865-2.621-1.865-4.357c0-1.764,0.611-3.225,1.844-4.381
			c1.244-1.154,2.811-1.734,4.689-1.734c1.869,0,3.383,0.572,4.549,1.713c0.59,0.596,1.043,1.307,1.352,2.137
			c0.313,0.828,0.506,1.898,0.59,3.199H42.657z M48.737,77.701c-0.623-0.566-1.451-0.846-2.487-0.846
			c-1.068,0-1.949,0.344-2.634,1.041c-0.366,0.375-0.639,0.809-0.814,1.297h6.941C49.534,78.619,49.202,78.117,48.737,77.701z"/>
		<path d="M55.686,86.439v-1.672V72.689h-2.055V70.33h4.832v13.746h2.035v2.363H55.686z"/>
		<path d="M62.831,86.439l-0.055-0.975v-8.309h-1.98v-2.363h4.758v9.283h1.945v2.363H62.831z M65.051,72.775
			c-0.363,0.305-0.773,0.457-1.219,0.457s-0.852-0.152-1.221-0.457c-0.336-0.33-0.502-0.699-0.502-1.104
			c0-0.449,0.166-0.822,0.502-1.127c0.369-0.303,0.775-0.453,1.221-0.453s0.855,0.15,1.219,0.453
			c0.336,0.334,0.502,0.699,0.502,1.105C65.553,72.1,65.387,72.475,65.051,72.775z"/>
		<path d="M77.129,86.439v-1.672v-6.742c0-0.391-0.092-0.67-0.277-0.848c-0.18-0.17-0.48-0.26-0.895-0.26
			c-0.273,0-0.555,0.037-0.85,0.109c-0.297,0.074-0.621,0.188-0.971,0.346c-0.303,0.133-0.588,0.275-0.848,0.436
			c-0.264,0.156-0.51,0.324-0.73,0.498v5.77h1.844v2.363H69.78v-1.672v-7.611h-2.057v-2.363h4.836v0.693
			c0.543-0.285,1.107-0.521,1.697-0.703c0.59-0.182,1.215-0.271,1.867-0.271c0.541,0,1.047,0.072,1.494,0.217
			c0.459,0.148,0.869,0.383,1.234,0.715c0.703,0.623,1.055,1.439,1.055,2.453v6.18H81.7v2.363H77.129z"/>
		<path d="M85.889,81.561c0.156,0.68,0.514,1.285,1.055,1.82c0.766,0.709,1.732,1.061,2.896,1.061c0.209,0,0.461-0.029,0.764-0.098
			c0.303-0.064,0.609-0.145,0.924-0.248c0.311-0.1,0.611-0.203,0.908-0.303c0.293-0.1,0.541-0.188,0.73-0.26l0.717,2.189
			c-0.637,0.219-1.18,0.385-1.627,0.51c-0.445,0.123-0.908,0.242-1.389,0.348c-0.48,0.107-0.885,0.16-1.217,0.16
			c-1.902,0-3.478-0.584-4.742-1.756c-1.246-1.17-1.869-2.621-1.869-4.357c0-1.764,0.613-3.225,1.846-4.381
			c1.244-1.154,2.809-1.734,4.689-1.734c1.867,0,3.385,0.572,4.55,1.713c0.59,0.596,1.041,1.307,1.354,2.137
			c0.309,0.828,0.502,1.898,0.586,3.199H85.889z M91.969,77.701c-0.621-0.566-1.449-0.846-2.488-0.846
			c-1.072,0-1.947,0.344-2.637,1.041c-0.363,0.375-0.633,0.809-0.809,1.297h6.941C92.766,78.619,92.434,78.117,91.969,77.701z"/>
		<path d="M103.102,86.439v-2.363h2.199V72.689h-2.199V70.33h5.094l-0.023,13.746h5.172v-3.795h2.826v6.158H103.102z"/>
		<path d="M126.022,86.439V85.66c-0.49,0.273-1.023,0.496-1.588,0.67c-0.568,0.174-1.148,0.26-1.738,0.26
			c-1.229,0-2.252-0.371-3.064-1.105c-0.813-0.707-1.217-1.582-1.217-2.625c0-1.125,0.473-2.059,1.436-2.795
			c0.461-0.379,0.992-0.648,1.59-0.813c0.598-0.166,1.256-0.252,1.976-0.252c0.557,0,1.149,0.074,1.77,0.219
			c0.127,0.027,0.266,0.061,0.402,0.096c0.148,0.037,0.291,0.086,0.434,0.143v-1.346c0-0.287-0.043-0.512-0.133-0.674
			c-0.084-0.156-0.201-0.281-0.346-0.363c-0.191-0.119-0.432-0.209-0.717-0.275c-0.286-0.063-0.639-0.096-1.053-0.096
			c-0.209,0-0.447,0.025-0.719,0.076c-0.273,0.049-0.547,0.115-0.826,0.191c-0.277,0.084-0.541,0.164-0.789,0.24
			c-0.25,0.082-0.457,0.148-0.639,0.205l-0.857-1.93c0.556-0.197,1.039-0.365,1.438-0.484c0.396-0.125,0.82-0.236,1.268-0.34
			c0.443-0.1,0.838-0.15,1.17-0.15c0.734,0,1.404,0.07,2,0.203c0.6,0.141,1.129,0.355,1.592,0.645
			c0.482,0.332,0.83,0.729,1.055,1.191c0.223,0.463,0.338,0.984,0.338,1.561v5.965h1.887v2.363H126.022z M126.022,81.842
			c-0.334-0.158-0.662-0.289-0.979-0.391c-0.434-0.143-0.9-0.217-1.412-0.217c-0.447,0-0.82,0.049-1.115,0.141
			c-0.295,0.096-0.529,0.223-0.705,0.381c-0.4,0.316-0.6,0.713-0.6,1.191c0,0.361,0.154,0.686,0.453,0.975
			c0.146,0.129,0.322,0.234,0.531,0.305c0.207,0.07,0.47,0.105,0.789,0.105c0.524,0,1.09-0.133,1.702-0.41
			c0.508-0.229,0.955-0.518,1.336-0.865V81.842z"/>
		<path d="M144.266,84.855c-1.213,1.154-2.791,1.734-4.738,1.734c-0.859,0-1.717-0.178-2.557-0.543
			c-0.18-0.072-0.342-0.154-0.496-0.25c-0.15-0.092-0.309-0.195-0.467-0.313v0.955h-2.773v-1.672V72.689h-2.061V70.33h4.834v5.352
			c0.303-0.23,0.617-0.414,0.936-0.563c0.922-0.406,1.828-0.607,2.707-0.607c1.848,0,3.389,0.564,4.616,1.691
			c1.217,1.115,1.822,2.523,1.822,4.229C146.088,82.24,145.483,83.717,144.266,84.855z M142.258,77.83
			c-0.67-0.664-1.535-0.996-2.588-0.996c-1.02,0-1.881,0.338-2.586,1.018c-0.732,0.695-1.096,1.584-1.096,2.67
			c0,0.605,0.086,1.135,0.27,1.59s0.447,0.844,0.779,1.162c0.686,0.666,1.549,0.998,2.586,0.998c1.084,0,1.965-0.34,2.635-1.02
			c0.686-0.707,1.027-1.635,1.027-2.775C143.286,79.404,142.944,78.525,142.258,77.83z"/>
		<path d="M157.37,85.787c-0.461,0.334-0.998,0.578-1.604,0.738c-0.604,0.16-1.27,0.236-1.991,0.236
			c-0.826,0-1.576-0.137-2.25-0.412c-0.156-0.055-0.318-0.135-0.472-0.238v0.328h-2.633v-4.945h2.633
			c0.016,0.754,0.09,1.291,0.225,1.617c0.135,0.324,0.314,0.582,0.539,0.77c0.492,0.416,1.188,0.627,2.083,0.627
			c0.667,0,1.235-0.154,1.696-0.457c0.223-0.158,0.383-0.311,0.471-0.467c0.088-0.148,0.131-0.311,0.131-0.484
			c0-0.232-0.032-0.404-0.098-0.521c-0.061-0.115-0.152-0.209-0.264-0.281c-0.158-0.115-0.42-0.225-0.791-0.322
			c-0.363-0.104-0.865-0.205-1.506-0.307c-0.701-0.115-1.328-0.262-1.881-0.434c-0.547-0.174-1.006-0.383-1.373-0.629
			c-0.451-0.289-0.768-0.65-0.959-1.084c-0.189-0.434-0.287-0.908-0.287-1.432c0-1.098,0.441-1.979,1.318-2.646
			c0.828-0.619,1.834-0.932,3.016-0.932c0.445,0,0.875,0.049,1.292,0.139c0.413,0.096,0.803,0.244,1.17,0.449h2.492v4.313h-2.563
			c-0.031-0.637-0.105-1.094-0.217-1.377c-0.111-0.281-0.271-0.5-0.479-0.662c-0.221-0.174-0.465-0.305-0.73-0.402
			c-0.266-0.09-0.582-0.137-0.941-0.137c-0.324,0-0.588,0.031-0.793,0.096c-0.206,0.064-0.375,0.156-0.502,0.27
			c-0.275,0.248-0.408,0.533-0.408,0.848c0,0.203,0.029,0.35,0.084,0.449c0.057,0.092,0.125,0.166,0.203,0.225
			c0.146,0.07,0.385,0.156,0.721,0.26c0.332,0.102,0.803,0.195,1.41,0.281c0.848,0.143,1.59,0.316,2.227,0.52
			c0.639,0.205,1.135,0.467,1.486,0.781c0.348,0.316,0.605,0.684,0.764,1.094c0.158,0.414,0.24,0.855,0.24,1.334
			C158.831,84.148,158.342,85.08,157.37,85.787z"/>
	</g>
</g>
</svg>
