<?xml version="1.0" encoding="utf-8"?>
<!-- Generator: Adobe Illustrator 16.0.0, SVG Export Plug-In . SVG Version: 6.00 Build 0)  -->
<!DOCTYPE svg PUBLIC "-//W3C//DTD SVG 1.1//EN" "http://www.w3.org/Graphics/SVG/1.1/DTD/svg11.dtd">
<svg version="1.1" id="Layer_1" xmlns="http://www.w3.org/2000/svg" xmlns:xlink="http://www.w3.org/1999/xlink" x="0px" y="0px"
	 width="57.865px" height="55.772px" viewBox="0 0 57.865 55.772" enable-background="new 0 0 57.865 55.772" xml:space="preserve">
<rect x="-117.924" y="-243.489" width="290.071" height="322.283"/>
<g>
	<g>
		<path fill="#FFFFFF" d="M32.44,29.863c-0.009,0.01-0.017,0.018-0.024,0.025l5.247,5.246l0.62,0.619l0.024-0.023l-0.617-0.617
			L32.44,29.863z"/>
		<path fill="#FFFFFF" d="M23.684,25.613l-2.277,2.273l2.264,2.264c0.378,0.377,2.373,2.154,4.515,0.012l2.277-2.277l-2.264-2.264
			C27.82,25.242,25.827,23.469,23.684,25.613z"/>
		<path fill="#FFFFFF" d="M56.777,36.936c-0.203,0.193-0.407,0.383-0.619,0.557C56.362,37.326,56.569,37.133,56.777,36.936z"/>
		<path fill="#FFFFFF" d="M40.343,37.65l-0.025,0.025c2.636,2.107,5.925,2.996,9.117,2.664l0.021-0.021
			C46.266,40.648,42.976,39.758,40.343,37.65z"/>
		<g>
			<g>
				<path fill="#FFFFFF" d="M10.527,17.398c0.017,0.012,0.036,0.018,0.054,0.029c0.25,0.164,0.492,0.352,0.734,0.537
					c0.068,0.055,0.141,0.102,0.211,0.156l7.148-7.148c3.997-3.998,10.497-3.996,14.492-0.002L46.69,24.496
					c0.12-0.051,0.238-0.1,0.363-0.135c1.273-0.387,2.717-0.08,3.726,0.928c1.453,1.453,1.453,3.809,0.002,5.266l-0.01,0.01
					c-1.458,1.451-3.812,1.449-5.264-0.004c-0.217-0.217-0.396-0.455-0.55-0.705c-0.623-1.027-0.699-2.287-0.24-3.375L31.187,12.949
					c-2.904-2.904-7.629-2.902-10.534,0.002l-7.091,7.09l0.618,0.619l5.248,5.248c0.777-0.777,1.55-1.551,2.275-2.275
					c3.741-3.74,7.672-0.793,8.475,0.008c0.67,0.67,9.491,9.492,9.491,9.492l1.62,1.619c3.792,3.791,9.939,3.793,13.732,0.002
					c3.794-3.795,3.792-9.941,0-13.734L39.668,5.668l-0.002-0.002c-0.237-0.238-0.481-0.459-0.735-0.668
					C31.552-1.668,20.316-1.666,12.938,5c-0.254,0.207-0.499,0.428-0.736,0.664l-9.788,9.789
					C5.211,15.164,8.087,15.811,10.527,17.398z"/>
				<path fill="#FFFFFF" d="M40.317,37.676l-7.151,7.152c-1.929,1.928-4.502,2.99-7.247,2.99c-2.743-0.002-5.316-1.063-7.245-2.99
					c0,0,0,0,0,0l-7.166-7.166c-2.574,2.053-5.838,3-9.092,2.66l9.782,9.781l0,0.002c0.238,0.236,0.482,0.461,0.736,0.668
					c7.38,6.666,18.615,6.666,25.994-0.002c0.255-0.207,0.499-0.428,0.736-0.666l9.768-9.766
					C46.243,40.672,42.953,39.783,40.317,37.676z"/>
				<path fill="#FFFFFF" d="M20.654,42.848C20.655,42.848,20.655,42.848,20.654,42.848c1.401,1.4,3.271,2.172,5.266,2.172
					c1.997-0.002,3.869-0.771,5.268-2.17l7.095-7.096l-0.62-0.619l-5.247-5.246c-0.77,0.77-1.534,1.533-2.253,2.252
					c-3.74,3.74-7.672,0.791-8.473-0.012c-0.363-0.361-3.105-3.104-5.548-5.549c0.331,3.188-0.553,6.473-2.652,9.104L20.654,42.848z
					"/>
				<path fill="#FFFFFF" d="M13.461,35.654l-6.307-6.307c0.572-1.352,0.312-2.975-0.79-4.078l-0.009-0.014
					c-1.456-1.449-3.812-1.447-5.266,0.006c-0.217,0.219-0.397,0.455-0.549,0.707c-0.872,1.434-0.691,3.326,0.549,4.566
					c0.447,0.445,0.979,0.756,1.546,0.93c0.833,0.25,1.733,0.201,2.538-0.139l6.308,6.309L13.461,35.654z"/>
			</g>
		</g>
	</g>
</g>
</svg>
