<?xml version="1.0" encoding="utf-8"?>
<!-- Generator: Adobe Illustrator 16.0.0, SVG Export Plug-In . SVG Version: 6.00 Build 0)  -->
<!DOCTYPE svg PUBLIC "-//W3C//DTD SVG 1.1//EN" "http://www.w3.org/Graphics/SVG/1.1/DTD/svg11.dtd">
<svg version="1.1" id="Layer_1" xmlns="http://www.w3.org/2000/svg" xmlns:xlink="http://www.w3.org/1999/xlink" x="0px" y="0px"
	 width="218.839px" height="63.132px" viewBox="0 0 218.839 63.132" enable-background="new 0 0 218.839 63.132"
	 xml:space="preserve">
<g>
	<g>
		<path d="M106.961,36.924c-0.373,0.887-0.942,1.656-1.71,2.316c-0.766,0.658-1.643,1.143-2.628,1.449
			c-0.984,0.309-2.069,0.463-3.252,0.463H95.33v6.268v2.375h-6.901v-3.363h2.957V30.227h-2.957v-3.365h10.614
			c1.249,0,2.392,0.15,3.433,0.447s1.955,0.775,2.743,1.436c0.79,0.66,1.369,1.424,1.742,2.299c0.372,0.875,0.56,1.869,0.56,2.979
			C107.521,35.07,107.333,36.039,106.961,36.924z M103.28,32.277c-0.196-0.482-0.446-0.859-0.755-1.127
			c-0.328-0.287-0.8-0.514-1.414-0.678c-0.613-0.166-1.412-0.246-2.398-0.246H95.33v7.563h3.383c0.898,0,1.648-0.082,2.25-0.248
			c0.604-0.164,1.102-0.391,1.495-0.68c0.35-0.266,0.626-0.611,0.822-1.033c0.199-0.422,0.296-0.963,0.296-1.621
			C103.576,33.404,103.479,32.764,103.28,32.277z"/>
		<path d="M112.936,49.795l-0.066-1.387v-11.82h-2.727v-3.367h6.539v13.211h2.66v3.363H112.936z M115.99,30.348
			c-0.505,0.436-1.063,0.65-1.676,0.65c-0.614,0-1.171-0.215-1.677-0.65c-0.46-0.473-0.688-0.996-0.688-1.572
			c0-0.639,0.228-1.174,0.688-1.605c0.506-0.432,1.063-0.648,1.677-0.648c0.612,0,1.171,0.217,1.676,0.648
			c0.46,0.473,0.691,0.998,0.691,1.574C116.682,29.383,116.45,29.916,115.99,30.348z"/>
		<path d="M137.164,47.729c-1.646,1.668-3.746,2.502-6.309,2.502c-1.27,0-2.51-0.268-3.713-0.805
			c-0.219-0.104-0.433-0.215-0.64-0.338c-0.209-0.125-0.4-0.26-0.578-0.404v4.293h2.828v3.365h-6.64v-2.377V36.588h-2.628v-3.367
			h6.439v1.266c0.221-0.166,0.44-0.32,0.66-0.465c0.218-0.143,0.447-0.268,0.688-0.369c1.182-0.559,2.41-0.834,3.682-0.834
			c2.474,0,4.533,0.834,6.176,2.498c0.832,0.826,1.446,1.746,1.839,2.766c0.396,1.018,0.593,2.135,0.593,3.35
			C139.563,43.941,138.762,46.041,137.164,47.729z M134.435,37.633c-0.917-0.965-2.134-1.451-3.646-1.451
			c-1.401,0-2.574,0.475-3.516,1.422s-1.412,2.232-1.412,3.859c0,0.844,0.124,1.586,0.376,2.223
			c0.253,0.637,0.608,1.193,1.069,1.666c0.964,0.967,2.158,1.451,3.581,1.451c1.489,0,2.684-0.473,3.581-1.42
			c0.461-0.492,0.813-1.055,1.05-1.684c0.243-0.627,0.364-1.352,0.364-2.176C135.883,39.898,135.398,38.602,134.435,37.633z"/>
		<path d="M146.38,42.852c0.22,0.967,0.702,1.83,1.446,2.592c1.049,1.01,2.377,1.514,3.977,1.514c0.283,0,0.633-0.045,1.051-0.139
			c0.414-0.094,0.838-0.211,1.264-0.355c0.429-0.145,0.845-0.287,1.249-0.434c0.405-0.143,0.74-0.266,1.001-0.369l0.986,3.119
			c-0.875,0.309-1.622,0.549-2.233,0.723c-0.614,0.176-1.249,0.34-1.906,0.496c-0.657,0.154-1.216,0.232-1.676,0.232
			c-2.604,0-4.777-0.834-6.507-2.502c-1.707-1.666-2.563-3.734-2.563-6.205c0-2.51,0.844-4.588,2.53-6.236
			c1.709-1.645,3.856-2.469,6.439-2.469c2.564,0,4.646,0.814,6.244,2.439c0.81,0.844,1.428,1.855,1.856,3.041
			c0.426,1.184,0.694,2.699,0.806,4.553H146.38z M154.726,37.355c-0.854-0.801-1.994-1.203-3.418-1.203
			c-1.466,0-2.672,0.492-3.614,1.48c-0.506,0.535-0.875,1.154-1.116,1.854h9.529C155.82,38.664,155.359,37.951,154.726,37.355z"/>
		<path d="M164.037,49.795V47.42V30.227h-2.825v-3.365h6.637v19.57h2.792v3.363H164.037z"/>
		<path d="M173.627,49.795l-0.066-1.387v-11.82h-2.726v-3.367h6.537v13.211h2.662v3.363H173.627z M176.684,30.348
			c-0.503,0.436-1.063,0.65-1.676,0.65c-0.613,0-1.171-0.215-1.676-0.65c-0.46-0.473-0.691-0.996-0.691-1.572
			c0-0.639,0.231-1.174,0.691-1.605c0.505-0.432,1.063-0.648,1.676-0.648c0.612,0,1.173,0.217,1.676,0.648
			c0.459,0.473,0.688,0.998,0.688,1.574C177.372,29.383,177.143,29.916,176.684,30.348z"/>
		<path d="M193.061,49.795V47.42v-9.602c0-0.555-0.128-0.957-0.379-1.203c-0.251-0.244-0.662-0.371-1.232-0.371
			c-0.371,0-0.76,0.053-1.165,0.154c-0.404,0.104-0.851,0.27-1.331,0.494c-0.417,0.186-0.806,0.393-1.166,0.619
			c-0.363,0.225-0.696,0.463-1.004,0.709v8.211h2.531v3.363h-6.342V47.42V36.588h-2.824v-3.367h6.635v0.986
			c0.746-0.412,1.522-0.746,2.332-1.002c0.813-0.26,1.666-0.387,2.564-0.387c0.744,0,1.429,0.102,2.055,0.309
			c0.624,0.205,1.188,0.547,1.691,1.018c0.964,0.889,1.445,2.049,1.445,3.488v8.799h2.464v3.363H193.061z"/>
		<path d="M204.875,42.852c0.219,0.967,0.701,1.83,1.445,2.592c1.05,1.01,2.377,1.514,3.976,1.514c0.284,0,0.635-0.045,1.052-0.139
			c0.415-0.094,0.84-0.211,1.266-0.355c0.427-0.145,0.842-0.287,1.247-0.434c0.405-0.143,0.741-0.266,1.004-0.369l0.986,3.119
			c-0.879,0.309-1.624,0.549-2.235,0.723c-0.613,0.176-1.248,0.34-1.906,0.496c-0.658,0.154-1.216,0.232-1.677,0.232
			c-2.606,0-4.775-0.834-6.507-2.502c-1.706-1.666-2.561-3.734-2.561-6.205c0-2.51,0.843-4.588,2.53-6.236
			c1.707-1.645,3.854-2.469,6.44-2.469c2.562,0,4.644,0.814,6.242,2.439c0.811,0.844,1.431,1.855,1.855,3.041
			c0.428,1.184,0.695,2.699,0.806,4.553H204.875z M213.222,37.355c-0.854-0.801-1.994-1.203-3.417-1.203
			c-1.469,0-2.673,0.492-3.616,1.48c-0.503,0.535-0.877,1.154-1.117,1.854h9.53C214.315,38.664,213.856,37.951,213.222,37.355z"/>
	</g>
	<g>
		<path fill="none" d="M42.383,33.598c-0.009,0.01-0.018,0.018-0.025,0.025l5.393,5.393l0.637,0.637l0.026-0.025l-0.635-0.635
			L42.383,33.598z"/>
		<path fill="none" d="M33.38,29.227l-2.341,2.34l2.327,2.326c0.389,0.389,2.44,2.215,4.643,0.014l2.341-2.342l-2.328-2.328
			C37.633,28.848,35.582,27.025,33.38,29.227z"/>
		<path fill="none" d="M67.397,40.867c-0.209,0.199-0.418,0.395-0.637,0.574C66.972,41.27,67.185,41.07,67.397,40.867z"/>
		<path fill="none" d="M50.503,41.604l-0.025,0.025c2.708,2.166,6.091,3.08,9.371,2.738l0.022-0.021
			C56.593,44.686,53.21,43.77,50.503,41.604z"/>
		<path d="M3.718,22.52c-0.331,0.334-0.639,0.684-0.925,1.045c-0.005,0.008-0.013,0.02-0.019,0.027
			c-0.021,0.027-0.04,0.055-0.06,0.08c-0.008,0.012-0.017,0.021-0.025,0.035c-0.282,0.363-0.541,0.74-0.78,1.127
			c-0.012,0.021-0.027,0.037-0.04,0.059c-0.028,0.049-0.053,0.098-0.08,0.145c-0.152,0.258-0.299,0.516-0.43,0.781
			c-0.002,0.002-0.003,0.004-0.003,0.006c-0.037,0.072-0.069,0.148-0.104,0.223c-0.008,0.016-0.014,0.031-0.021,0.047
			c-0.116,0.246-0.229,0.49-0.33,0.736c-0.001,0.006-0.004,0.012-0.006,0.016c-0.134,0.342-0.255,0.684-0.361,1.031
			c0.001,0.004-0.001,0.008-0.001,0.008c-0.009,0.033-0.016,0.061-0.021,0.09c-0.008,0.031-0.017,0.063-0.025,0.096
			c-0.093,0.33-0.176,0.66-0.242,0.992c0,0.004,0,0.006,0,0.006c-0.008,0.031-0.012,0.059-0.017,0.088
			c-0.003,0.025-0.007,0.051-0.013,0.074c-0.063,0.352-0.115,0.701-0.15,1.053c-0.001,0.006,0,0.008-0.001,0.014
			C0.062,30.314,0.06,30.332,0.06,30.35c-0.002,0.018-0.004,0.037-0.004,0.055c-0.036,0.377-0.052,0.754-0.053,1.129
			C0.001,31.551,0.001,31.572,0,31.592c0.003,1.635,0.312,3.254,0.927,4.777c0,0.002,0,0.002,0,0.002
			c0.01,0.025,0.021,0.051,0.031,0.072c0.009,0.018,0.016,0.037,0.023,0.055c0.132,0.313,0.274,0.623,0.429,0.928
			c0.045,0.086,0.093,0.172,0.141,0.258c0.002,0.006,0.006,0.012,0.008,0.018c0.137,0.256,0.285,0.504,0.44,0.748c0,0,0,0,0.001,0
			c0.062,0.102,0.128,0.201,0.193,0.301c0.003,0.006,0.006,0.012,0.012,0.018c0.117,0.172,0.245,0.34,0.372,0.508
			c0.048,0.063,0.091,0.125,0.138,0.188c0.071,0.09,0.137,0.182,0.209,0.27c0.005,0.006,0.009,0.01,0.012,0.016
			c0.14,0.166,0.293,0.324,0.438,0.486c0.125,0.135,0.236,0.275,0.367,0.406c0.002,0.002,0.002,0.002,0.003,0.002l0.014,0.014
			l0.001,0.002l15.781,15.779c0.293,0.295,0.601,0.576,0.914,0.836c8.698,7.813,21.776,7.811,30.476-0.002
			c0.315-0.262,0.62-0.541,0.911-0.832L67.627,40.66l0.002-0.002c0.627-0.627,1.174-1.301,1.644-2.014
			c0.187-0.283,0.339-0.58,0.501-0.871c0.043-0.08,0.091-0.154,0.131-0.23c0.162-0.309,0.303-0.625,0.438-0.941
			c0.038-0.092,0.076-0.18,0.113-0.273c0.134-0.334,0.25-0.67,0.354-1.012c0.016-0.055,0.031-0.109,0.047-0.162
			c0.788-2.73,0.677-5.67-0.375-8.332c-0.011-0.027-0.018-0.057-0.028-0.084c-0.112-0.279-0.249-0.555-0.382-0.828
			c-0.052-0.105-0.092-0.213-0.146-0.314c-0.111-0.215-0.245-0.42-0.368-0.629c-0.095-0.156-0.177-0.314-0.277-0.469
			c-0.114-0.174-0.245-0.334-0.367-0.502c-0.132-0.18-0.255-0.365-0.396-0.539c-0.125-0.156-0.269-0.299-0.402-0.447
			c-0.156-0.174-0.302-0.354-0.467-0.52c-0.001,0-0.01-0.01-0.019-0.02l-0.02-0.018L51.846,6.689c-0.292-0.291-0.6-0.57-0.913-0.832
			c-8.697-7.813-21.775-7.809-30.476,0.002c-0.328,0.271-0.627,0.543-0.914,0.83L3.761,22.473l-0.002,0.002
			C3.745,22.488,3.732,22.504,3.718,22.52z M11.746,35.244c-0.584-0.18-1.132-0.498-1.591-0.957
			c-1.273-1.273-1.46-3.219-0.563-4.693c0.157-0.26,0.342-0.502,0.565-0.727c1.495-1.494,3.915-1.494,5.412-0.006l0.01,0.014
			c1.131,1.135,1.4,2.803,0.811,4.193l6.483,6.484l-2.034,2.033l-6.484-6.484C13.525,35.451,12.601,35.502,11.746,35.244z
			 M31.33,35.928c0.824,0.824,4.866,3.855,8.711,0.012c0.739-0.738,1.525-1.525,2.316-2.316c0.007-0.008,0.017-0.016,0.025-0.025
			l5.395,5.395l0.635,0.635l-0.026,0.025l-7.293,7.295c-1.438,1.438-3.361,2.229-5.415,2.23c-2.049-0.002-3.973-0.793-5.412-2.232
			c0,0,0,0,0,0l-7.364-7.363c2.159-2.705,3.067-6.084,2.726-9.357C28.139,32.736,30.958,35.555,31.33,35.928z M31.039,31.566
			l2.341-2.34c2.202-2.201,4.253-0.379,4.642,0.01l2.328,2.328l-2.341,2.342c-2.202,2.201-4.254,0.375-4.643-0.014L31.039,31.566z
			 M59.849,44.367L49.808,54.406c-0.244,0.242-0.495,0.471-0.755,0.684c-7.585,6.854-19.135,6.855-26.72,0.002
			c-0.26-0.215-0.512-0.443-0.757-0.688h0L11.52,44.35c3.346,0.35,6.7-0.625,9.346-2.736l7.366,7.365
			c0.001,0.002,0.001,0.002,0.001,0.002c1.982,1.982,4.626,3.072,7.446,3.074c2.821,0,5.467-1.094,7.449-3.074l7.352-7.352
			l0.025-0.025c2.707,2.166,6.089,3.082,9.368,2.742L59.849,44.367z M21.576,8.725c0.245-0.246,0.498-0.471,0.758-0.684
			c7.585-6.854,19.135-6.855,26.719-0.002c0.262,0.213,0.512,0.441,0.756,0.686h0.001l15.782,15.781
			c3.898,3.898,3.899,10.219,0,14.119c-3.897,3.896-10.218,3.896-14.116-0.002l-1.664-1.664c0,0-9.068-9.068-9.756-9.756
			c-0.825-0.824-4.867-3.855-8.71-0.012c-0.746,0.746-1.541,1.541-2.34,2.34l-5.394-5.393l-0.635-0.637l7.29-7.289
			c2.985-2.986,7.842-2.986,10.827-0.002l13.909,13.908c-0.472,1.119-0.394,2.416,0.248,3.471c0.157,0.258,0.342,0.502,0.564,0.725
			c1.494,1.494,3.913,1.496,5.411,0.004l0.01-0.01c1.493-1.498,1.49-3.918-0.003-5.412c-1.037-1.037-2.52-1.354-3.83-0.955
			c-0.127,0.037-0.25,0.088-0.372,0.139L43.127,14.178C39.021,10.07,32.34,10.07,28.231,14.18l-7.349,7.348
			c-0.073-0.055-0.147-0.105-0.217-0.162c-0.248-0.188-0.497-0.381-0.755-0.551c-0.018-0.01-0.037-0.018-0.054-0.031
			c-2.508-1.631-5.465-2.295-8.341-1.998L21.576,8.725z"/>
		<g>
			<g>
				<path fill="#FFCB05" d="M19.856,20.783c0.018,0.014,0.036,0.021,0.054,0.031c0.258,0.17,0.507,0.363,0.755,0.551
					c0.07,0.057,0.144,0.107,0.217,0.162l7.349-7.348c4.108-4.109,10.789-4.109,14.896-0.002L57.03,28.08
					c0.123-0.051,0.245-0.102,0.372-0.139c1.31-0.398,2.793-0.082,3.83,0.955c1.494,1.494,1.496,3.914,0.003,5.412l-0.01,0.01
					c-1.498,1.492-3.917,1.49-5.411-0.004c-0.222-0.223-0.407-0.467-0.564-0.725c-0.642-1.055-0.72-2.352-0.248-3.471L41.093,16.211
					c-2.985-2.984-7.842-2.984-10.827,0.002l-7.29,7.289l0.635,0.637l5.394,5.393c0.799-0.799,1.594-1.594,2.34-2.34
					c3.844-3.844,7.886-0.813,8.71,0.012c0.688,0.688,9.756,9.756,9.756,9.756l1.664,1.664c3.898,3.898,10.219,3.898,14.116,0.002
					c3.9-3.9,3.898-10.221,0-14.119L49.811,8.725H49.81c-0.244-0.244-0.495-0.473-0.756-0.686
					c-7.584-6.854-19.134-6.852-26.719,0.002c-0.261,0.213-0.514,0.438-0.758,0.684L11.516,18.785
					C14.391,18.488,17.348,19.152,19.856,20.783z"/>
				<path fill="#FFCB05" d="M50.479,41.629l-7.352,7.352c-1.981,1.98-4.628,3.074-7.449,3.074c-2.82-0.002-5.463-1.092-7.446-3.074
					c0,0,0,0-0.001-0.002l-7.366-7.365c-2.646,2.111-6,3.086-9.346,2.736l10.055,10.055h0c0.245,0.244,0.497,0.473,0.757,0.688
					c7.585,6.854,19.135,6.852,26.72-0.002c0.261-0.213,0.512-0.441,0.755-0.684l10.041-10.039
					C56.569,44.709,53.187,43.795,50.479,41.629z"/>
				<path fill="#FFCB05" d="M30.266,46.945C30.266,46.945,30.266,46.945,30.266,46.945c1.439,1.439,3.363,2.23,5.413,2.232
					c2.054-0.002,3.977-0.793,5.415-2.23l7.293-7.295l-0.637-0.637l-5.393-5.393c-0.792,0.791-1.577,1.578-2.316,2.316
					c-3.845,3.844-7.887,0.813-8.711-0.012c-0.372-0.373-3.191-3.191-5.703-5.703c0.342,3.273-0.567,6.652-2.726,9.357
					L30.266,46.945z"/>
				<path fill="#FFCB05" d="M22.872,39.553l-6.483-6.484c0.589-1.391,0.32-3.059-0.811-4.193l-0.01-0.014
					c-1.497-1.488-3.917-1.488-5.412,0.006c-0.223,0.225-0.408,0.467-0.565,0.727c-0.897,1.475-0.71,3.42,0.563,4.693
					c0.459,0.459,1.007,0.777,1.591,0.957c0.855,0.258,1.78,0.207,2.608-0.143l6.484,6.484L22.872,39.553z"/>
			</g>
		</g>
	</g>
</g>
</svg>
