<?xml version="1.0" encoding="utf-8"?>
<!-- Generator: Adobe Illustrator 16.0.0, SVG Export Plug-In . SVG Version: 6.00 Build 0)  -->
<!DOCTYPE svg PUBLIC "-//W3C//DTD SVG 1.1//EN" "http://www.w3.org/Graphics/SVG/1.1/DTD/svg11.dtd">
<svg version="1.1" id="Layer_1" xmlns="http://www.w3.org/2000/svg" xmlns:xlink="http://www.w3.org/1999/xlink" x="0px" y="0px"
	 width="69.433px" height="61.418px" viewBox="0 0 69.433 61.418" enable-background="new 0 0 69.433 61.418" xml:space="preserve">
<g>
	<path fill="none" d="M41.23,32.687c-0.009,0.01-0.017,0.018-0.024,0.025l5.247,5.246l0.62,0.619l0.024-0.023l-0.617-0.617
		L41.23,32.687z"/>
	<path fill="none" d="M32.474,28.437l-2.277,2.273l2.264,2.264c0.378,0.377,2.373,2.154,4.515,0.012l2.277-2.277l-2.264-2.264
		C36.61,28.065,34.617,26.292,32.474,28.437z"/>
	<path fill="none" d="M65.567,39.759c-0.203,0.193-0.407,0.383-0.619,0.557C65.152,40.149,65.359,39.956,65.567,39.759z"/>
	<path fill="none" d="M49.133,40.474l-0.025,0.025c2.636,2.107,5.925,2.996,9.117,2.664l0.021-0.021
		C55.056,43.472,51.766,42.581,49.133,40.474z"/>
	<path d="M3.618,21.909c-0.322,0.326-0.622,0.664-0.901,1.016c-0.005,0.01-0.012,0.02-0.019,0.027
		c-0.021,0.027-0.039,0.055-0.057,0.078c-0.009,0.012-0.017,0.021-0.024,0.033c-0.276,0.354-0.527,0.723-0.759,1.098
		c-0.012,0.02-0.027,0.035-0.04,0.057c-0.026,0.045-0.051,0.096-0.077,0.141c-0.147,0.25-0.291,0.502-0.418,0.76
		c0,0-0.002,0.002-0.003,0.006c-0.036,0.07-0.066,0.145-0.102,0.217c-0.008,0.016-0.013,0.029-0.021,0.045
		c-0.112,0.24-0.223,0.477-0.32,0.717c-0.001,0.006-0.004,0.012-0.004,0.012c-0.131,0.336-0.25,0.67-0.353,1.008
		c0.001,0.002-0.001,0.006,0,0.01c-0.009,0.027-0.017,0.055-0.021,0.084c-0.008,0.029-0.017,0.063-0.025,0.094
		c-0.09,0.32-0.172,0.643-0.235,0.965v0.01c-0.008,0.027-0.012,0.055-0.017,0.082c-0.003,0.023-0.006,0.049-0.012,0.072
		c-0.062,0.342-0.112,0.682-0.146,1.023c0,0-0.001,0.01,0,0.016c-0.003,0.016-0.005,0.031-0.006,0.049s-0.003,0.037-0.005,0.055
		c-0.035,0.365-0.05,0.732-0.052,1.098c0.001,0.018,0,0.037-0.001,0.057c0.003,1.59,0.303,3.166,0.901,4.648c0,0,0,0,0,0
		c0.011,0.025,0.021,0.051,0.032,0.072c0.007,0.016,0.015,0.035,0.021,0.051c0.129,0.307,0.266,0.609,0.417,0.904
		c0.044,0.082,0.091,0.166,0.137,0.25c0.002,0.006,0.006,0.012,0.009,0.018c0.133,0.248,0.277,0.488,0.429,0.727c0,0,0,0,0.001,0
		c0.06,0.1,0.123,0.197,0.188,0.293c0.002,0.006,0.005,0.012,0.011,0.018c0.113,0.168,0.239,0.33,0.362,0.494
		c0.046,0.061,0.088,0.123,0.134,0.184c0.068,0.084,0.133,0.176,0.203,0.262c0.004,0.004,0.008,0.008,0.01,0.016
		c0.137,0.16,0.287,0.314,0.428,0.473c0.122,0.129,0.229,0.266,0.357,0.395c0.001,0.002,0.001,0.002,0.003,0.004l0.013,0.012
		l0.002,0.002l15.351,15.352c0.286,0.285,0.585,0.559,0.89,0.811c8.462,7.6,21.185,7.6,29.648-0.002
		c0.306-0.254,0.604-0.525,0.886-0.809l15.357-15.35l0.001-0.002c0.61-0.609,1.143-1.266,1.599-1.959
		c0.182-0.275,0.33-0.564,0.488-0.85c0.041-0.076,0.087-0.148,0.128-0.223c0.156-0.299,0.294-0.607,0.425-0.916
		c0.037-0.09,0.075-0.176,0.11-0.266c0.13-0.326,0.243-0.65,0.343-0.984c0.016-0.053,0.033-0.107,0.047-0.158
		c0.766-2.658,0.658-5.516-0.365-8.104c-0.01-0.029-0.017-0.055-0.027-0.082c-0.108-0.273-0.242-0.541-0.373-0.809
		c-0.049-0.1-0.089-0.205-0.142-0.305c-0.108-0.209-0.238-0.408-0.358-0.609c-0.091-0.152-0.172-0.309-0.269-0.457
		c-0.112-0.17-0.24-0.326-0.356-0.49c-0.129-0.176-0.25-0.354-0.387-0.523c-0.122-0.15-0.261-0.291-0.391-0.434
		c-0.152-0.17-0.294-0.346-0.454-0.506c-0.001-0.002-0.01-0.01-0.019-0.02l-0.02-0.02L50.438,6.511
		c-0.285-0.285-0.584-0.557-0.89-0.811c-8.46-7.602-21.183-7.6-29.646,0c-0.319,0.266-0.61,0.531-0.889,0.809L3.658,21.864H3.657
		C3.643,21.88,3.631,21.894,3.618,21.909z M11.426,34.288c-0.567-0.174-1.099-0.484-1.546-0.93c-1.24-1.24-1.421-3.133-0.549-4.566
		c0.152-0.252,0.332-0.488,0.549-0.707c1.454-1.453,3.81-1.455,5.266-0.006l0.009,0.014c1.102,1.104,1.362,2.727,0.79,4.078
		l6.307,6.307l-1.979,1.98l-6.308-6.309C13.159,34.489,12.259,34.538,11.426,34.288z M30.48,34.952
		c0.801,0.803,4.733,3.752,8.473,0.012c0.719-0.719,1.483-1.482,2.253-2.252c0.007-0.008,0.015-0.016,0.024-0.025l5.249,5.25
		l0.617,0.617l-0.024,0.023l-7.095,7.096c-1.399,1.398-3.271,2.168-5.268,2.17c-1.995,0-3.865-0.771-5.265-2.172h0l-7.165-7.164
		c2.099-2.631,2.983-5.916,2.652-9.104C27.375,31.849,30.117,34.591,30.48,34.952z M30.196,30.71l2.277-2.273
		c2.144-2.145,4.136-0.371,4.515,0.008l2.264,2.264l-2.277,2.277c-2.143,2.143-4.137,0.365-4.515-0.012L30.196,30.71z
		 M58.224,43.163l-9.768,9.766c-0.238,0.238-0.481,0.459-0.736,0.666c-7.379,6.668-18.614,6.668-25.994,0.002
		c-0.254-0.207-0.499-0.432-0.736-0.668l0-0.002l-9.782-9.781c3.254,0.34,6.518-0.607,9.092-2.66l7.166,7.166h0
		c1.929,1.928,4.502,2.988,7.245,2.99c2.745,0,5.318-1.063,7.247-2.99l7.151-7.152l0.025-0.025c2.633,2.107,5.923,2.998,9.113,2.668
		L58.224,43.163z M20.991,8.487c0.237-0.236,0.482-0.457,0.736-0.664c7.379-6.666,18.614-6.668,25.994-0.002
		c0.254,0.209,0.498,0.43,0.735,0.668l0.002,0.002l15.353,15.352c3.792,3.793,3.794,9.939,0,13.734
		c-3.792,3.791-9.94,3.789-13.732-0.002l-1.62-1.619c0,0-8.821-8.822-9.491-9.492c-0.802-0.801-4.734-3.748-8.475-0.008
		c-0.725,0.725-1.498,1.498-2.275,2.275l-5.248-5.248l-0.618-0.619l7.091-7.09c2.904-2.904,7.629-2.906,10.534-0.002l13.531,13.531
		c-0.459,1.088-0.383,2.348,0.24,3.375c0.154,0.25,0.333,0.488,0.55,0.705c1.453,1.453,3.807,1.455,5.264,0.004l0.01-0.01
		c1.451-1.457,1.45-3.813-0.002-5.266c-1.008-1.008-2.452-1.314-3.726-0.928c-0.125,0.035-0.243,0.084-0.363,0.135L41.956,13.794
		C37.961,9.8,31.461,9.798,27.464,13.796l-7.148,7.148c-0.071-0.055-0.143-0.102-0.211-0.156c-0.242-0.186-0.483-0.373-0.734-0.537
		c-0.018-0.012-0.037-0.018-0.054-0.029c-2.44-1.588-5.316-2.234-8.113-1.945L20.991,8.487z"/>
	<g>
		<g>
			<path fill="#FFCB05" d="M19.317,20.222c0.017,0.012,0.036,0.018,0.054,0.029c0.25,0.164,0.492,0.352,0.734,0.537
				c0.068,0.055,0.141,0.102,0.211,0.156l7.148-7.148c3.997-3.998,10.497-3.996,14.492-0.002L55.48,27.319
				c0.12-0.051,0.238-0.1,0.363-0.135c1.273-0.387,2.717-0.08,3.726,0.928c1.453,1.453,1.453,3.809,0.002,5.266l-0.01,0.01
				c-1.458,1.451-3.812,1.449-5.264-0.004c-0.217-0.217-0.396-0.455-0.55-0.705c-0.623-1.027-0.699-2.287-0.24-3.375L39.977,15.772
				c-2.904-2.904-7.629-2.902-10.534,0.002l-7.091,7.09l0.618,0.619l5.248,5.248c0.777-0.777,1.55-1.551,2.275-2.275
				c3.741-3.74,7.672-0.793,8.475,0.008c0.67,0.67,9.491,9.492,9.491,9.492l1.62,1.619c3.792,3.791,9.939,3.793,13.732,0.002
				c3.794-3.795,3.792-9.941,0-13.734L48.458,8.491l-0.002-0.002c-0.237-0.238-0.481-0.459-0.735-0.668
				c-7.379-6.666-18.615-6.664-25.994,0.002c-0.254,0.207-0.499,0.428-0.736,0.664l-9.788,9.789
				C14.001,17.987,16.877,18.634,19.317,20.222z"/>
			<path fill="#FFCB05" d="M49.107,40.499l-7.151,7.152c-1.929,1.928-4.502,2.99-7.247,2.99c-2.743-0.002-5.316-1.063-7.245-2.99h0
				l-7.166-7.166c-2.574,2.053-5.838,3-9.092,2.66l9.782,9.781l0,0.002c0.238,0.236,0.482,0.461,0.736,0.668
				c7.38,6.666,18.615,6.666,25.994-0.002c0.255-0.207,0.499-0.428,0.736-0.666l9.768-9.766
				C55.033,43.495,51.743,42.606,49.107,40.499z"/>
			<path fill="#FFCB05" d="M29.444,45.671L29.444,45.671c1.401,1.4,3.271,2.172,5.266,2.172c1.997-0.002,3.869-0.771,5.268-2.17
				l7.095-7.096l-0.62-0.619l-5.247-5.246c-0.77,0.77-1.534,1.533-2.253,2.252c-3.74,3.74-7.672,0.791-8.473-0.012
				c-0.363-0.361-3.105-3.104-5.548-5.549c0.331,3.188-0.553,6.473-2.652,9.104L29.444,45.671z"/>
			<path fill="#FFCB05" d="M22.251,38.478l-6.307-6.307c0.572-1.352,0.312-2.975-0.79-4.078l-0.009-0.014
				c-1.456-1.449-3.812-1.447-5.266,0.006c-0.217,0.219-0.397,0.455-0.549,0.707c-0.872,1.434-0.691,3.326,0.549,4.566
				c0.447,0.445,0.979,0.756,1.546,0.93c0.833,0.25,1.733,0.201,2.538-0.139l6.308,6.309L22.251,38.478z"/>
		</g>
	</g>
</g>
</svg>
